<svg width="56.317" height="73" viewBox="0 0 56.317 73" xmlns="http://www.w3.org/2000/svg"><g id="svgGroup" stroke-linecap="round" fill-rule="evenodd" font-size="9pt" stroke="#000" stroke-width="2mm" fill="#000" style="stroke:#000;stroke-width:2mm;fill:#000"><path d="M 0.089 72 L 26.189 1.4 Q 26.689 0 28.139 0 Q 29.589 0 30.189 1.4 L 56.289 72 Q 56.389 72.4 56.139 72.7 Q 55.889 73 55.589 73 Q 54.489 73 54.189 72 L 45.589 48.8 Q 45.189 48 44.489 48 L 11.889 48 Q 11.089 48 10.789 48.8 L 2.189 72 Q 1.789 73 0.789 73 Q 0.389 73 0.139 72.7 Q -0.111 72.4 0.089 72 Z M 28.089 1.8 L 12.089 45.2 Q 11.889 46 12.589 46 L 43.789 46 Q 44.489 46 44.289 45.2 L 28.289 1.8 Q 28.289 1.7 28.189 1.7 Q 28.089 1.7 28.089 1.8 Z" id="0" vector-effect="non-scaling-stroke"/></g></svg>