<svg width="50.005" height="75.007" viewBox="0 0 50.005 75.007" xmlns="http://www.w3.org/2000/svg"><g id="svgGroup" stroke-linecap="round" fill-rule="evenodd" font-size="9pt" stroke="#000" stroke-width="2mm" fill="#000" style="stroke:#000;stroke-width:2mm;fill:#000"><path d="M 0.001 67.606 L 0.001 7.406 Q 0.001 4.906 1.551 3.006 Q 3.101 1.106 5.501 0.706 Q 10.901 0.006 15.001 0.006 Q 50.001 0.006 50.001 36.506 Q 50.001 75.006 15.001 75.006 Q 10.201 75.006 5.701 74.406 Q 3.201 74.006 1.601 72.056 Q 0.001 70.106 0.001 67.606 Z M 2.001 4.206 L 2.001 70.806 Q 2.001 71.606 2.801 71.806 Q 8.501 73.006 15.001 73.006 Q 31.901 73.006 39.951 64.106 Q 48.001 55.206 48.001 36.506 Q 48.001 18.906 39.951 10.456 Q 31.901 2.006 15.001 2.006 Q 8.501 2.006 2.801 3.206 Q 2.001 3.406 2.001 4.206 Z" id="0" vector-effect="non-scaling-stroke"/></g></svg>