<svg width="40" height="73" viewBox="0 0 40 73" xmlns="http://www.w3.org/2000/svg"><g id="svgGroup" stroke-linecap="round" fill-rule="evenodd" font-size="9pt" stroke="#000" stroke-width="2mm" fill="#000" style="stroke:#000;stroke-width:2mm;fill:#000"><path d="M 39 73 L 5.7 73 Q 3.4 73 1.7 71.3 Q 0 69.6 0 67.3 L 0 5.7 Q 0 3.4 1.7 1.7 Q 3.4 0 5.7 0 L 39 0 Q 40 0 40 1 Q 40 2 39 2 L 2.9 2 Q 2 2 2 2.8 L 2 31.1 Q 2 32 2.9 32 L 37 32 Q 38 32 38 33 Q 38 34 37 34 L 2.9 34 Q 2 34 2 34.8 L 2 70.1 Q 2 71 2.9 71 L 39 71 Q 40 71 40 72 Q 40 73 39 73 Z" id="0" vector-effect="non-scaling-stroke"/></g></svg>