<svg width="62" height="73" viewBox="0 0 62 73" xmlns="http://www.w3.org/2000/svg"><g id="svgGroup" stroke-linecap="round" fill-rule="evenodd" font-size="9pt" stroke="#000" stroke-width="2mm" fill="#000" style="stroke:#000;stroke-width:2mm;fill:#000"><path d="M 0 72 L 0 1.6 Q 0 0 1.6 0 Q 3.3 0 4.1 1.4 L 30.8 45.9 Q 30.8 46 31 46 Q 31.2 46 31.2 45.9 L 57.9 1.4 Q 58.7 0 60.4 0 Q 62 0 62 1.6 L 62 72 Q 62 73 61 73 Q 60 73 60 72 L 60 2.2 Q 60 2.1 59.9 2.1 Q 59.7 2.1 59.7 2.2 L 32.8 47 Q 32.1 48 31 48 Q 29.9 48 29.2 47 L 2.3 2.2 Q 2.3 2.1 2.1 2.1 Q 2 2.1 2 2.2 L 2 72 Q 2 73 1 73 Q 0 73 0 72 Z" id="0" vector-effect="non-scaling-stroke"/></g></svg>