<svg width="210" height="232" viewBox="0 0 210 232" fill="none" xmlns="http://www.w3.org/2000/svg">
<g opacity="0.9">
<rect opacity="0.85" x="0.0408936" width="209.01" height="231.95" rx="15" fill="#D9D9D9"/>
</g>
<path d="M63.3367 44.688C62.6647 45.824 61.7367 46.696 60.5527 47.304C59.3687 47.912 58.0407 48.216 56.5687 48.216C54.8247 48.216 53.3287 47.88 52.0807 47.208C50.8327 46.536 49.8727 45.576 49.2007 44.328C48.5447 43.064 48.2167 41.56 48.2167 39.816C48.2167 38.008 48.5847 36.424 49.3207 35.064C50.0567 33.704 51.0807 32.64 52.3927 31.872C53.7047 31.104 55.2247 30.72 56.9527 30.72C58.4247 30.72 59.6807 31 60.7207 31.56C61.7767 32.12 62.6567 32.968 63.3607 34.104L60.9607 35.832C60.5287 35.032 59.9607 34.448 59.2567 34.08C58.5527 33.712 57.7767 33.528 56.9287 33.528C55.8407 33.528 54.8807 33.792 54.0487 34.32C53.2167 34.848 52.5607 35.584 52.0807 36.528C51.6167 37.456 51.3847 38.536 51.3847 39.768C51.3847 41.544 51.8407 42.928 52.7527 43.92C53.6807 44.912 54.9687 45.408 56.6167 45.408C57.5287 45.408 58.3687 45.2 59.1367 44.784C59.9047 44.368 60.5287 43.736 61.0087 42.888L63.3367 44.688ZM70.3691 35.688C72.1771 35.688 73.5931 36.232 74.6171 37.32C75.6571 38.392 76.1771 39.848 76.1771 41.688C76.1771 42.936 75.9131 44.056 75.3851 45.048C74.8731 46.024 74.1451 46.8 73.2011 47.376C72.2571 47.936 71.1611 48.216 69.9131 48.216C68.1051 48.216 66.6811 47.68 65.6411 46.608C64.6171 45.536 64.1051 44.072 64.1051 42.216C64.1051 40.968 64.3611 39.856 64.8731 38.88C65.4011 37.888 66.1291 37.112 67.0571 36.552C68.0011 35.976 69.1051 35.688 70.3691 35.688ZM70.0091 45.648C70.9531 45.648 71.7131 45.288 72.2891 44.568C72.8651 43.848 73.1531 42.888 73.1531 41.688C73.1531 40.6 72.8971 39.76 72.3851 39.168C71.8891 38.576 71.2011 38.28 70.3211 38.28C69.3451 38.28 68.5691 38.64 67.9931 39.36C67.4171 40.08 67.1291 41.032 67.1291 42.216C67.1291 43.304 67.3771 44.152 67.8731 44.76C68.3851 45.352 69.0971 45.648 70.0091 45.648ZM78.7202 48V35.88H81.6482L81.5042 38.928C81.9682 37.888 82.6002 37.088 83.4002 36.528C84.2002 35.968 85.1122 35.688 86.1362 35.688C87.4962 35.688 88.5202 36.16 89.2082 37.104C89.9122 38.032 90.2562 39.368 90.2402 41.112L90.1922 48H87.2642L87.3122 41.352C87.3282 40.408 87.1762 39.688 86.8562 39.192C86.5522 38.68 86.0562 38.424 85.3682 38.424C84.8402 38.424 84.3522 38.576 83.9042 38.88C83.4562 39.184 83.0642 39.704 82.7282 40.44C82.3922 41.16 82.1282 42.144 81.9362 43.392C81.7442 44.624 81.6402 46.16 81.6242 48H78.7202ZM104.509 30.24V48H101.533L101.629 45.888C101.197 46.64 100.637 47.216 99.9491 47.616C99.2611 48.016 98.4611 48.216 97.5491 48.216C96.4931 48.216 95.5971 47.976 94.8611 47.496C94.1251 47 93.5651 46.32 93.1811 45.456C92.7971 44.592 92.6051 43.6 92.6051 42.48C92.6051 41.136 92.8691 39.96 93.3971 38.952C93.9251 37.928 94.6451 37.128 95.5571 36.552C96.4851 35.976 97.5251 35.688 98.6771 35.688C99.2851 35.688 99.8371 35.792 100.333 36C100.845 36.208 101.269 36.496 101.605 36.864L101.581 35.88V30.24H104.509ZM98.8931 38.28C97.9011 38.28 97.1091 38.656 96.5171 39.408C95.9251 40.16 95.6291 41.144 95.6291 42.36C95.6291 43.4 95.8531 44.208 96.3011 44.784C96.7491 45.36 97.3651 45.648 98.1491 45.648C98.7891 45.648 99.3651 45.464 99.8771 45.096C100.405 44.728 100.821 44.216 101.125 43.56C101.429 42.904 101.581 42.152 101.581 41.304C101.581 40.36 101.341 39.624 100.861 39.096C100.381 38.552 99.7251 38.28 98.8931 38.28ZM110.547 35.88V48H107.619V35.88H110.547ZM109.083 33.96C108.507 33.96 108.051 33.784 107.715 33.432C107.379 33.08 107.211 32.656 107.211 32.16C107.211 31.664 107.379 31.24 107.715 30.888C108.051 30.536 108.507 30.36 109.083 30.36C109.659 30.36 110.115 30.536 110.451 30.888C110.787 31.24 110.955 31.664 110.955 32.16C110.955 32.656 110.787 33.08 110.451 33.432C110.115 33.784 109.659 33.96 109.083 33.96ZM119.065 48.216C117.225 48.216 115.769 47.688 114.697 46.632C113.625 45.56 113.089 44.072 113.089 42.168C113.089 40.888 113.353 39.76 113.881 38.784C114.409 37.808 115.145 37.048 116.089 36.504C117.033 35.96 118.121 35.688 119.353 35.688C120.377 35.688 121.273 35.888 122.041 36.288C122.809 36.688 123.433 37.312 123.913 38.16L121.825 39.744C121.521 39.232 121.169 38.864 120.769 38.64C120.385 38.416 119.913 38.304 119.353 38.304C118.409 38.304 117.633 38.656 117.025 39.36C116.433 40.064 116.137 40.992 116.137 42.144C116.137 43.264 116.401 44.128 116.929 44.736C117.473 45.328 118.249 45.624 119.257 45.624C119.785 45.624 120.273 45.504 120.721 45.264C121.185 45.024 121.569 44.648 121.873 44.136L123.913 45.768C123.369 46.648 122.681 47.28 121.849 47.664C121.017 48.032 120.089 48.216 119.065 48.216ZM118.321 53.352C117.825 53.352 117.321 53.296 116.809 53.184C116.297 53.088 115.873 52.96 115.537 52.8L116.185 51.288C116.857 51.576 117.561 51.72 118.297 51.72C118.617 51.72 118.873 51.656 119.065 51.528C119.257 51.416 119.353 51.248 119.353 51.024C119.353 50.848 119.273 50.704 119.113 50.592C118.969 50.48 118.697 50.424 118.297 50.424H116.977L118.369 47.568H120.313L119.689 48.984C121.081 49.24 121.777 49.928 121.777 51.048C121.777 51.752 121.465 52.312 120.841 52.728C120.233 53.144 119.393 53.352 118.321 53.352ZM130.721 35.688C132.529 35.688 133.945 36.232 134.969 37.32C136.009 38.392 136.529 39.848 136.529 41.688C136.529 42.936 136.265 44.056 135.737 45.048C135.225 46.024 134.497 46.8 133.553 47.376C132.609 47.936 131.513 48.216 130.265 48.216C128.457 48.216 127.033 47.68 125.993 46.608C124.969 45.536 124.457 44.072 124.457 42.216C124.457 40.968 124.713 39.856 125.225 38.88C125.753 37.888 126.481 37.112 127.409 36.552C128.353 35.976 129.457 35.688 130.721 35.688ZM130.361 45.648C131.305 45.648 132.065 45.288 132.641 44.568C133.217 43.848 133.505 42.888 133.505 41.688C133.505 40.6 133.249 39.76 132.737 39.168C132.241 38.576 131.553 38.28 130.673 38.28C129.697 38.28 128.921 38.64 128.345 39.36C127.769 40.08 127.481 41.032 127.481 42.216C127.481 43.304 127.729 44.152 128.225 44.76C128.737 45.352 129.449 45.648 130.361 45.648ZM132.401 34.392C131.969 34.392 131.505 34.28 131.009 34.056C130.529 33.816 130.057 33.584 129.593 33.36C129.145 33.136 128.753 33.024 128.417 33.024C128.145 33.024 127.873 33.128 127.601 33.336C127.345 33.544 127.137 33.84 126.977 34.224L125.825 33.288C126.017 32.488 126.353 31.88 126.833 31.464C127.329 31.032 127.921 30.816 128.609 30.816C129.041 30.816 129.505 30.936 130.001 31.176C130.497 31.4 130.969 31.624 131.417 31.848C131.881 32.072 132.273 32.184 132.593 32.184C132.897 32.184 133.177 32.08 133.433 31.872C133.689 31.664 133.889 31.36 134.033 30.96L135.185 31.896C134.993 32.712 134.649 33.336 134.153 33.768C133.673 34.184 133.089 34.392 132.401 34.392ZM144.856 48.216C143.544 48.216 142.408 47.976 141.448 47.496C140.504 47 139.776 46.296 139.264 45.384C138.752 44.472 138.496 43.384 138.496 42.12C138.496 40.856 138.76 39.744 139.288 38.784C139.816 37.808 140.528 37.048 141.424 36.504C142.336 35.96 143.368 35.688 144.52 35.688C146.392 35.688 147.768 36.328 148.648 37.608C149.544 38.872 149.856 40.624 149.584 42.864H141.472C141.536 43.712 141.88 44.392 142.504 44.904C143.128 45.416 143.984 45.672 145.072 45.672C145.584 45.672 146.096 45.56 146.608 45.336C147.136 45.112 147.584 44.768 147.952 44.304L149.656 46.032C149.112 46.72 148.448 47.256 147.664 47.64C146.896 48.024 145.96 48.216 144.856 48.216ZM144.568 37.896C143.752 37.896 143.08 38.152 142.552 38.664C142.024 39.176 141.688 39.864 141.544 40.728H147.064C147.096 39.736 146.88 39.016 146.416 38.568C145.952 38.12 145.336 37.896 144.568 37.896ZM156.351 48.216C154.687 48.216 153.415 47.904 152.535 47.28C151.655 46.64 151.143 45.752 150.999 44.616L153.471 44.016C153.567 44.624 153.847 45.096 154.311 45.432C154.775 45.752 155.439 45.912 156.303 45.912C157.007 45.912 157.535 45.8 157.887 45.576C158.255 45.352 158.439 45.048 158.439 44.664C158.439 44.28 158.239 43.984 157.839 43.776C157.455 43.568 156.855 43.384 156.039 43.224C155.127 43.048 154.343 42.824 153.687 42.552C153.047 42.28 152.551 41.912 152.199 41.448C151.863 40.968 151.695 40.344 151.695 39.576C151.695 38.84 151.903 38.184 152.319 37.608C152.735 37.016 153.303 36.552 154.023 36.216C154.759 35.864 155.599 35.688 156.543 35.688C157.807 35.688 158.839 35.984 159.639 36.576C160.455 37.168 160.943 37.928 161.103 38.856L158.679 39.504C158.567 39.04 158.327 38.68 157.959 38.424C157.591 38.152 157.095 38.016 156.471 38.016C155.847 38.016 155.367 38.144 155.031 38.4C154.711 38.656 154.551 38.976 154.551 39.36C154.551 39.744 154.735 40.048 155.103 40.272C155.487 40.48 156.135 40.68 157.047 40.872C157.895 41.048 158.631 41.272 159.255 41.544C159.895 41.8 160.399 42.16 160.767 42.624C161.135 43.072 161.319 43.68 161.319 44.448C161.319 45.2 161.103 45.864 160.671 46.44C160.255 47 159.671 47.44 158.919 47.76C158.167 48.064 157.311 48.216 156.351 48.216ZM62.7977 74.688C62.1257 75.824 61.1977 76.696 60.0137 77.304C58.8297 77.912 57.5017 78.216 56.0297 78.216C54.2857 78.216 52.7897 77.88 51.5417 77.208C50.2937 76.536 49.3337 75.576 48.6617 74.328C48.0057 73.064 47.6777 71.56 47.6777 69.816C47.6777 68.008 48.0457 66.424 48.7817 65.064C49.5177 63.704 50.5417 62.64 51.8537 61.872C53.1657 61.104 54.6857 60.72 56.4137 60.72C57.8857 60.72 59.1417 61 60.1817 61.56C61.2377 62.12 62.1177 62.968 62.8217 64.104L60.4217 65.832C59.9897 65.032 59.4217 64.448 58.7177 64.08C58.0137 63.712 57.2377 63.528 56.3897 63.528C55.3017 63.528 54.3417 63.792 53.5097 64.32C52.6777 64.848 52.0217 65.584 51.5417 66.528C51.0777 67.456 50.8457 68.536 50.8457 69.768C50.8457 71.544 51.3017 72.928 52.2137 73.92C53.1417 74.912 54.4297 75.408 56.0777 75.408C56.9897 75.408 57.8297 75.2 58.5977 74.784C59.3657 74.368 59.9897 73.736 60.4697 72.888L62.7977 74.688ZM71.9649 68.712C71.6449 68.6 71.2369 68.544 70.7409 68.544C69.8769 68.544 69.1809 68.864 68.6529 69.504C68.1249 70.128 67.7329 71.136 67.4769 72.528C67.2369 73.904 67.1169 75.728 67.1169 78H64.2129V70.176L64.1889 65.88H67.1169L66.9729 69.264C67.3889 67.968 67.9649 67.048 68.7009 66.504C69.4529 65.96 70.2529 65.688 71.1009 65.688C71.3569 65.688 71.5969 65.704 71.8209 65.736C72.0449 65.768 72.2529 65.816 72.4449 65.88L71.9649 68.712ZM79.1113 65.688C80.9193 65.688 82.3353 66.232 83.3593 67.32C84.3993 68.392 84.9193 69.848 84.9193 71.688C84.9193 72.936 84.6553 74.056 84.1273 75.048C83.6153 76.024 82.8873 76.8 81.9433 77.376C80.9993 77.936 79.9033 78.216 78.6553 78.216C76.8473 78.216 75.4233 77.68 74.3833 76.608C73.3593 75.536 72.8473 74.072 72.8473 72.216C72.8473 70.968 73.1033 69.856 73.6153 68.88C74.1433 67.888 74.8713 67.112 75.7993 66.552C76.7433 65.976 77.8473 65.688 79.1113 65.688ZM78.7513 75.648C79.6953 75.648 80.4553 75.288 81.0313 74.568C81.6073 73.848 81.8953 72.888 81.8953 71.688C81.8953 70.6 81.6393 69.76 81.1273 69.168C80.6313 68.576 79.9433 68.28 79.0633 68.28C78.0873 68.28 77.3113 68.64 76.7353 69.36C76.1593 70.08 75.8713 71.032 75.8713 72.216C75.8713 73.304 76.1193 74.152 76.6153 74.76C77.1273 75.352 77.8393 75.648 78.7513 75.648ZM83.2633 64.248H80.5033L78.8953 62.088L77.2873 64.248H74.5273L77.6713 60.24H80.1193L83.2633 64.248ZM87.4623 78V65.88H90.3903L90.2463 68.928C90.7103 67.888 91.3423 67.088 92.1423 66.528C92.9423 65.968 93.8543 65.688 94.8783 65.688C96.2383 65.688 97.2623 66.16 97.9503 67.104C98.6543 68.032 98.9983 69.368 98.9823 71.112L98.9343 78H96.0063L96.0543 71.352C96.0703 70.408 95.9183 69.688 95.5983 69.192C95.2943 68.68 94.7983 68.424 94.1103 68.424C93.5823 68.424 93.0943 68.576 92.6463 68.88C92.1983 69.184 91.8063 69.704 91.4703 70.44C91.1343 71.16 90.8703 72.144 90.6783 73.392C90.4863 74.624 90.3823 76.16 90.3663 78H87.4623ZM104.851 65.88V78H101.923V65.88H104.851ZM103.387 63.96C102.811 63.96 102.355 63.784 102.019 63.432C101.683 63.08 101.515 62.656 101.515 62.16C101.515 61.664 101.683 61.24 102.019 60.888C102.355 60.536 102.811 60.36 103.387 60.36C103.963 60.36 104.419 60.536 104.755 60.888C105.091 61.24 105.259 61.664 105.259 62.16C105.259 62.656 105.091 63.08 104.755 63.432C104.419 63.784 103.963 63.96 103.387 63.96ZM113.37 78.216C111.53 78.216 110.074 77.688 109.002 76.632C107.93 75.56 107.394 74.072 107.394 72.168C107.394 70.888 107.658 69.76 108.186 68.784C108.714 67.808 109.45 67.048 110.394 66.504C111.338 65.96 112.426 65.688 113.658 65.688C114.682 65.688 115.578 65.888 116.346 66.288C117.114 66.688 117.738 67.312 118.218 68.16L116.13 69.744C115.826 69.232 115.474 68.864 115.074 68.64C114.69 68.416 114.218 68.304 113.658 68.304C112.714 68.304 111.938 68.656 111.33 69.36C110.738 70.064 110.442 70.992 110.442 72.144C110.442 73.264 110.706 74.128 111.234 74.736C111.778 75.328 112.554 75.624 113.562 75.624C114.09 75.624 114.578 75.504 115.026 75.264C115.49 75.024 115.874 74.648 116.178 74.136L118.218 75.768C117.674 76.648 116.986 77.28 116.154 77.664C115.322 78.032 114.394 78.216 113.37 78.216ZM130.665 65.928V78H127.689L127.785 75.888C127.353 76.624 126.785 77.2 126.081 77.616C125.393 78.016 124.601 78.216 123.705 78.216C122.649 78.216 121.753 77.976 121.017 77.496C120.281 77 119.721 76.32 119.337 75.456C118.953 74.592 118.761 73.6 118.761 72.48C118.761 71.136 119.025 69.96 119.553 68.952C120.081 67.928 120.801 67.128 121.713 66.552C122.641 65.976 123.681 65.688 124.833 65.688C125.601 65.688 126.281 65.856 126.873 66.192C127.465 66.512 127.921 66.944 128.241 67.488L128.529 65.928H130.665ZM125.049 68.28C124.057 68.28 123.265 68.656 122.673 69.408C122.081 70.16 121.785 71.144 121.785 72.36C121.785 73.4 122.009 74.208 122.457 74.784C122.905 75.36 123.521 75.648 124.305 75.648C124.945 75.648 125.521 75.464 126.033 75.096C126.561 74.728 126.977 74.216 127.281 73.56C127.585 72.904 127.737 72.152 127.737 71.304C127.737 70.36 127.497 69.624 127.017 69.096C126.537 68.552 125.881 68.28 125.049 68.28ZM138.023 78.216C136.359 78.216 135.087 77.904 134.207 77.28C133.327 76.64 132.815 75.752 132.671 74.616L135.143 74.016C135.239 74.624 135.519 75.096 135.983 75.432C136.447 75.752 137.111 75.912 137.975 75.912C138.679 75.912 139.207 75.8 139.559 75.576C139.927 75.352 140.111 75.048 140.111 74.664C140.111 74.28 139.911 73.984 139.511 73.776C139.127 73.568 138.527 73.384 137.711 73.224C136.799 73.048 136.015 72.824 135.359 72.552C134.719 72.28 134.223 71.912 133.871 71.448C133.535 70.968 133.367 70.344 133.367 69.576C133.367 68.84 133.575 68.184 133.991 67.608C134.407 67.016 134.975 66.552 135.695 66.216C136.431 65.864 137.271 65.688 138.215 65.688C139.479 65.688 140.511 65.984 141.311 66.576C142.127 67.168 142.615 67.928 142.775 68.856L140.351 69.504C140.239 69.04 139.999 68.68 139.631 68.424C139.263 68.152 138.767 68.016 138.143 68.016C137.519 68.016 137.039 68.144 136.703 68.4C136.383 68.656 136.223 68.976 136.223 69.36C136.223 69.744 136.407 70.048 136.775 70.272C137.159 70.48 137.807 70.68 138.719 70.872C139.567 71.048 140.303 71.272 140.927 71.544C141.567 71.8 142.071 72.16 142.439 72.624C142.807 73.072 142.991 73.68 142.991 74.448C142.991 75.2 142.775 75.864 142.343 76.44C141.927 77 141.343 77.44 140.591 77.76C139.839 78.064 138.983 78.216 138.023 78.216ZM156.715 78.216C155.403 78.216 154.267 77.976 153.307 77.496C152.363 77 151.635 76.296 151.123 75.384C150.611 74.472 150.355 73.384 150.355 72.12C150.355 70.856 150.619 69.744 151.147 68.784C151.675 67.808 152.387 67.048 153.283 66.504C154.195 65.96 155.227 65.688 156.379 65.688C158.251 65.688 159.627 66.328 160.507 67.608C161.403 68.872 161.715 70.624 161.443 72.864H153.331C153.395 73.712 153.739 74.392 154.363 74.904C154.987 75.416 155.843 75.672 156.931 75.672C157.443 75.672 157.955 75.56 158.467 75.336C158.995 75.112 159.443 74.768 159.811 74.304L161.515 76.032C160.971 76.72 160.307 77.256 159.523 77.64C158.755 78.024 157.819 78.216 156.715 78.216ZM156.427 67.896C155.611 67.896 154.939 68.152 154.411 68.664C153.883 69.176 153.547 69.864 153.403 70.728H158.923C158.955 69.736 158.739 69.016 158.275 68.568C157.811 68.12 157.195 67.896 156.427 67.896ZM24.502 108V90.96H29.566C32.878 90.96 35.382 91.672 37.078 93.096C38.774 94.52 39.622 96.624 39.622 99.408C39.622 101.136 39.246 102.648 38.494 103.944C37.742 105.224 36.678 106.224 35.302 106.944C33.926 107.648 32.31 108 30.454 108H24.502ZM27.622 105.24H30.334C32.334 105.24 33.854 104.76 34.894 103.8C35.934 102.824 36.454 101.4 36.454 99.528C36.454 97.576 35.918 96.12 34.846 95.16C33.79 94.2 32.166 93.72 29.974 93.72H27.622V105.24ZM48.0471 108.216C46.7351 108.216 45.5991 107.976 44.6391 107.496C43.6951 107 42.9671 106.296 42.4551 105.384C41.9431 104.472 41.6871 103.384 41.6871 102.12C41.6871 100.856 41.9511 99.744 42.4791 98.784C43.0071 97.808 43.7191 97.048 44.6151 96.504C45.5271 95.96 46.5591 95.688 47.7111 95.688C49.5831 95.688 50.9591 96.328 51.8391 97.608C52.7351 98.872 53.0471 100.624 52.7751 102.864H44.6631C44.7271 103.712 45.0711 104.392 45.6951 104.904C46.3191 105.416 47.1751 105.672 48.2631 105.672C48.7751 105.672 49.2871 105.56 49.7991 105.336C50.3271 105.112 50.7751 104.768 51.1431 104.304L52.8471 106.032C52.3031 106.72 51.6391 107.256 50.8551 107.64C50.0871 108.024 49.1511 108.216 48.0471 108.216ZM47.7591 97.896C46.9431 97.896 46.2711 98.152 45.7431 98.664C45.2151 99.176 44.8791 99.864 44.7351 100.728H50.2551C50.2871 99.736 50.0711 99.016 49.6071 98.568C49.1431 98.12 48.5271 97.896 47.7591 97.896ZM59.6624 113.04C58.9584 113.04 58.1984 112.968 57.3824 112.824C56.5824 112.68 55.9184 112.44 55.3904 112.104L56.1104 109.56C56.6384 109.832 57.2064 110.048 57.8144 110.208C58.4384 110.368 59.1024 110.448 59.8064 110.448C61.2304 110.448 62.2384 110.112 62.8304 109.44C63.4224 108.768 63.7504 107.712 63.8144 106.272L63.8624 105.528C63.4144 106.28 62.8464 106.856 62.1584 107.256C61.4864 107.64 60.6944 107.832 59.7824 107.832C58.6944 107.832 57.7664 107.6 56.9984 107.136C56.2464 106.672 55.6784 106.024 55.2944 105.192C54.9104 104.36 54.7184 103.408 54.7184 102.336C54.7184 101.04 54.9744 99.896 55.4864 98.904C56.0144 97.896 56.7344 97.112 57.6464 96.552C58.5744 95.976 59.6384 95.688 60.8384 95.688C61.6384 95.688 62.3344 95.856 62.9264 96.192C63.5184 96.512 63.9744 96.944 64.2944 97.488L64.5824 95.928H66.7184V105.912C66.7184 108.296 66.0944 110.08 64.8464 111.264C63.5984 112.448 61.8704 113.04 59.6624 113.04ZM61.0544 98.28C60.0464 98.28 59.2384 98.64 58.6304 99.36C58.0384 100.08 57.7424 101.008 57.7424 102.144C57.7424 103.136 57.9744 103.904 58.4384 104.448C58.9024 104.992 59.5344 105.264 60.3344 105.264C60.9904 105.264 61.5744 105.088 62.0864 104.736C62.6144 104.368 63.0304 103.872 63.3344 103.248C63.6384 102.624 63.7904 101.92 63.7904 101.136C63.7904 100.24 63.5424 99.544 63.0464 99.048C62.5504 98.536 61.8864 98.28 61.0544 98.28ZM75.6331 108.216C74.3211 108.216 73.1851 107.976 72.2251 107.496C71.2811 107 70.5531 106.296 70.0411 105.384C69.5291 104.472 69.2731 103.384 69.2731 102.12C69.2731 100.856 69.5371 99.744 70.0651 98.784C70.5931 97.808 71.3051 97.048 72.2011 96.504C73.1131 95.96 74.1451 95.688 75.2971 95.688C77.1691 95.688 78.5451 96.328 79.4251 97.608C80.3211 98.872 80.6331 100.624 80.3611 102.864H72.2491C72.3131 103.712 72.6571 104.392 73.2811 104.904C73.9051 105.416 74.7611 105.672 75.8491 105.672C76.3611 105.672 76.8731 105.56 77.3851 105.336C77.9131 105.112 78.3611 104.768 78.7291 104.304L80.4331 106.032C79.8891 106.72 79.2251 107.256 78.4411 107.64C77.6731 108.024 76.7371 108.216 75.6331 108.216ZM75.3451 97.896C74.5291 97.896 73.8571 98.152 73.3291 98.664C72.8011 99.176 72.4651 99.864 72.3211 100.728H77.8411C77.8731 99.736 77.6571 99.016 77.1931 98.568C76.7291 98.12 76.1131 97.896 75.3451 97.896ZM82.8803 108V95.88H85.8083L85.6643 98.928C86.1283 97.888 86.7603 97.088 87.5603 96.528C88.3603 95.968 89.2723 95.688 90.2963 95.688C91.6563 95.688 92.6803 96.16 93.3683 97.104C94.0723 98.032 94.4163 99.368 94.4003 101.112L94.3523 108H91.4243L91.4723 101.352C91.4883 100.408 91.3363 99.688 91.0163 99.192C90.7123 98.68 90.2163 98.424 89.5283 98.424C89.0003 98.424 88.5123 98.576 88.0643 98.88C87.6163 99.184 87.2243 99.704 86.8883 100.44C86.5523 101.16 86.2883 102.144 86.0963 103.392C85.9043 104.624 85.8003 106.16 85.7843 108H82.8803ZM103.125 108.216C101.813 108.216 100.677 107.976 99.7173 107.496C98.7733 107 98.0453 106.296 97.5333 105.384C97.0213 104.472 96.7653 103.384 96.7653 102.12C96.7653 100.856 97.0293 99.744 97.5573 98.784C98.0853 97.808 98.7973 97.048 99.6933 96.504C100.605 95.96 101.637 95.688 102.789 95.688C104.661 95.688 106.037 96.328 106.917 97.608C107.813 98.872 108.125 100.624 107.853 102.864H99.7413C99.8053 103.712 100.149 104.392 100.773 104.904C101.397 105.416 102.253 105.672 103.341 105.672C103.853 105.672 104.365 105.56 104.877 105.336C105.405 105.112 105.853 104.768 106.221 104.304L107.925 106.032C107.381 106.72 106.717 107.256 105.933 107.64C105.165 108.024 104.229 108.216 103.125 108.216ZM102.837 97.896C102.021 97.896 101.349 98.152 100.821 98.664C100.293 99.176 99.9573 99.864 99.8133 100.728H105.333C105.365 99.736 105.149 99.016 104.685 98.568C104.221 98.12 103.605 97.896 102.837 97.896ZM118.149 98.712C117.829 98.6 117.421 98.544 116.925 98.544C116.061 98.544 115.365 98.864 114.837 99.504C114.309 100.128 113.917 101.136 113.661 102.528C113.421 103.904 113.301 105.728 113.301 108H110.396V100.176L110.373 95.88H113.301L113.157 99.264C113.573 97.968 114.149 97.048 114.885 96.504C115.637 95.96 116.437 95.688 117.285 95.688C117.541 95.688 117.781 95.704 118.005 95.736C118.229 95.768 118.437 95.816 118.629 95.88L118.149 98.712ZM130.935 95.928V108H127.959L128.055 105.888C127.623 106.624 127.055 107.2 126.351 107.616C125.663 108.016 124.871 108.216 123.975 108.216C122.919 108.216 122.023 107.976 121.287 107.496C120.551 107 119.991 106.32 119.607 105.456C119.223 104.592 119.031 103.6 119.031 102.48C119.031 101.136 119.295 99.96 119.823 98.952C120.351 97.928 121.071 97.128 121.983 96.552C122.911 95.976 123.951 95.688 125.103 95.688C125.871 95.688 126.551 95.856 127.143 96.192C127.735 96.512 128.191 96.944 128.511 97.488L128.799 95.928H130.935ZM125.319 98.28C124.327 98.28 123.535 98.656 122.943 99.408C122.351 100.16 122.055 101.144 122.055 102.36C122.055 103.4 122.279 104.208 122.727 104.784C123.175 105.36 123.791 105.648 124.575 105.648C125.215 105.648 125.791 105.464 126.303 105.096C126.831 104.728 127.247 104.216 127.551 103.56C127.855 102.904 128.007 102.152 128.007 101.304C128.007 100.36 127.767 99.624 127.287 99.096C126.807 98.552 126.151 98.28 125.319 98.28ZM139.18 108.216C137.724 108.216 136.588 107.816 135.772 107.016C134.972 106.216 134.58 105.168 134.596 103.872L134.692 98.328H132.628V95.88H134.74L134.764 93.384H137.692L137.644 95.88H141.604V98.328H137.62L137.548 103.56C137.532 104.216 137.692 104.736 138.028 105.12C138.38 105.488 138.9 105.672 139.588 105.672C139.956 105.672 140.3 105.624 140.62 105.528C140.94 105.432 141.276 105.256 141.628 105L142.492 107.256C142.124 107.576 141.652 107.816 141.076 107.976C140.5 108.136 139.868 108.216 139.18 108.216ZM146.699 95.88V108H143.771V95.88H146.699ZM145.235 93.96C144.659 93.96 144.203 93.784 143.867 93.432C143.531 93.08 143.363 92.656 143.363 92.16C143.363 91.664 143.531 91.24 143.867 90.888C144.203 90.536 144.659 90.36 145.235 90.36C145.811 90.36 146.267 90.536 146.603 90.888C146.939 91.24 147.107 91.664 147.107 92.16C147.107 92.656 146.939 93.08 146.603 93.432C146.267 93.784 145.811 93.96 145.235 93.96ZM158.194 95.88H161.122L156.586 108H152.41L148.57 95.88H151.738L154.666 105.624L158.194 95.88ZM173.38 95.928V108H170.404L170.5 105.888C170.068 106.624 169.5 107.2 168.796 107.616C168.108 108.016 167.316 108.216 166.42 108.216C165.364 108.216 164.468 107.976 163.732 107.496C162.996 107 162.436 106.32 162.052 105.456C161.668 104.592 161.476 103.6 161.476 102.48C161.476 101.136 161.74 99.96 162.268 98.952C162.796 97.928 163.516 97.128 164.428 96.552C165.356 95.976 166.396 95.688 167.548 95.688C168.316 95.688 168.996 95.856 169.588 96.192C170.18 96.512 170.636 96.944 170.956 97.488L171.244 95.928H173.38ZM167.764 98.28C166.772 98.28 165.98 98.656 165.388 99.408C164.796 100.16 164.5 101.144 164.5 102.36C164.5 103.4 164.724 104.208 165.172 104.784C165.62 105.36 166.236 105.648 167.02 105.648C167.66 105.648 168.236 105.464 168.748 105.096C169.276 104.728 169.692 104.216 169.996 103.56C170.3 102.904 170.452 102.152 170.452 101.304C170.452 100.36 170.212 99.624 169.732 99.096C169.252 98.552 168.596 98.28 167.764 98.28ZM180.738 108.216C179.074 108.216 177.802 107.904 176.922 107.28C176.042 106.64 175.53 105.752 175.386 104.616L177.858 104.016C177.954 104.624 178.234 105.096 178.698 105.432C179.162 105.752 179.826 105.912 180.69 105.912C181.394 105.912 181.922 105.8 182.274 105.576C182.642 105.352 182.826 105.048 182.826 104.664C182.826 104.28 182.626 103.984 182.226 103.776C181.842 103.568 181.242 103.384 180.426 103.224C179.514 103.048 178.73 102.824 178.074 102.552C177.434 102.28 176.938 101.912 176.586 101.448C176.25 100.968 176.082 100.344 176.082 99.576C176.082 98.84 176.29 98.184 176.706 97.608C177.122 97.016 177.69 96.552 178.41 96.216C179.146 95.864 179.986 95.688 180.93 95.688C182.194 95.688 183.226 95.984 184.026 96.576C184.842 97.168 185.33 97.928 185.49 98.856L183.066 99.504C182.954 99.04 182.714 98.68 182.346 98.424C181.978 98.152 181.482 98.016 180.858 98.016C180.234 98.016 179.754 98.144 179.418 98.4C179.098 98.656 178.938 98.976 178.938 99.36C178.938 99.744 179.122 100.048 179.49 100.272C179.874 100.48 180.522 100.68 181.434 100.872C182.282 101.048 183.018 101.272 183.642 101.544C184.282 101.8 184.786 102.16 185.154 102.624C185.522 103.072 185.706 103.68 185.706 104.448C185.706 105.2 185.49 105.864 185.058 106.44C184.642 107 184.058 107.44 183.306 107.76C182.554 108.064 181.698 108.216 180.738 108.216Z" fill="#334B35"/>
<path d="M108.001 215.75L109.672 213.232C113.458 207.518 120.229 204.571 126.966 205.714L137.559 207.482C144.081 208.571 150.018 203.518 150 196.875C150 194.036 148.862 191.304 146.872 189.286L141.682 184.071C139.727 182.107 138.625 179.446 138.625 176.661C138.625 173.839 139.762 171.143 141.771 169.161L144.099 166.875C146.072 164.946 147.174 162.304 147.174 159.536C147.174 152.964 141.113 148.071 134.715 149.5L123.642 151.964C122.273 152.268 120.852 152.429 119.447 152.429H117.67C112.836 152.429 108.126 150.768 104.34 147.732L98.8658 143.321C96.9996 141.821 94.6713 141 92.2896 141C86.4777 141 81.75 145.732 81.75 151.589V156.089C81.75 162.321 77.9465 167.911 72.1701 170.161L65.6117 172.714C61.6305 174.268 59 178.125 59 182.411C59 187.429 62.5725 191.75 67.4957 192.643L72.4723 193.554C78.9596 194.75 84.0961 199.714 85.5535 206.179L86.8154 211.804C88.0062 217.179 92.7695 221 98.2437 221C102.154 221 105.815 219.036 108.001 215.75ZM121.58 192.429C120.072 192.429 118.625 191.827 117.559 190.755C116.492 189.683 115.893 188.23 115.893 186.714C115.893 185.199 116.492 183.745 117.559 182.674C118.625 181.602 120.072 181 121.58 181C123.089 181 124.535 181.602 125.602 182.674C126.669 183.745 127.268 185.199 127.268 186.714C127.268 188.23 126.669 189.683 125.602 190.755C124.535 191.827 123.089 192.429 121.58 192.429ZM98.8302 189.571C98.8302 190.329 98.5306 191.056 97.9973 191.592C97.464 192.128 96.7407 192.429 95.9865 192.429C95.2323 192.429 94.509 192.128 93.9757 191.592C93.4424 191.056 93.1428 190.329 93.1428 189.571C93.1428 188.814 93.4424 188.087 93.9757 187.551C94.509 187.015 95.2323 186.714 95.9865 186.714C96.7407 186.714 97.464 187.015 97.9973 187.551C98.5306 188.087 98.8302 188.814 98.8302 189.571ZM98.8302 175.286C97.3218 175.286 95.8752 174.684 94.8086 173.612C93.742 172.54 93.1428 171.087 93.1428 169.571C93.1428 168.056 93.742 166.602 94.8086 165.531C95.8752 164.459 97.3218 163.857 98.8302 163.857C100.339 163.857 101.785 164.459 102.852 165.531C103.919 166.602 104.518 168.056 104.518 169.571C104.518 171.087 103.919 172.54 102.852 173.612C101.785 174.684 100.339 175.286 98.8302 175.286Z" fill="#334B35"/>
</svg>
