<svg width="210" height="232" viewBox="0 0 210 232" fill="none" xmlns="http://www.w3.org/2000/svg">
<rect opacity="0.85" x="0.0306396" width="209.01" height="231.95" rx="15" fill="#D9D9D9"/>
<path d="M63.8367 44.688C63.1647 45.824 62.2367 46.696 61.0527 47.304C59.8687 47.912 58.5407 48.216 57.0687 48.216C55.3247 48.216 53.8287 47.88 52.5807 47.208C51.3327 46.536 50.3727 45.576 49.7007 44.328C49.0447 43.064 48.7167 41.56 48.7167 39.816C48.7167 38.008 49.0847 36.424 49.8207 35.064C50.5567 33.704 51.5807 32.64 52.8927 31.872C54.2047 31.104 55.7247 30.72 57.4527 30.72C58.9247 30.72 60.1807 31 61.2207 31.56C62.2767 32.12 63.1567 32.968 63.8607 34.104L61.4607 35.832C61.0287 35.032 60.4607 34.448 59.7567 34.08C59.0527 33.712 58.2767 33.528 57.4287 33.528C56.3407 33.528 55.3807 33.792 54.5487 34.32C53.7167 34.848 53.0607 35.584 52.5807 36.528C52.1167 37.456 51.8847 38.536 51.8847 39.768C51.8847 41.544 52.3407 42.928 53.2527 43.92C54.1807 44.912 55.4687 45.408 57.1167 45.408C58.0287 45.408 58.8687 45.2 59.6367 44.784C60.4047 44.368 61.0287 43.736 61.5087 42.888L63.8367 44.688ZM70.8691 35.688C72.6771 35.688 74.0931 36.232 75.1171 37.32C76.1571 38.392 76.6771 39.848 76.6771 41.688C76.6771 42.936 76.4131 44.056 75.8851 45.048C75.3731 46.024 74.6451 46.8 73.7011 47.376C72.7571 47.936 71.6611 48.216 70.4131 48.216C68.6051 48.216 67.1811 47.68 66.1411 46.608C65.1171 45.536 64.6051 44.072 64.6051 42.216C64.6051 40.968 64.8611 39.856 65.3731 38.88C65.9011 37.888 66.6291 37.112 67.5571 36.552C68.5011 35.976 69.6051 35.688 70.8691 35.688ZM70.5091 45.648C71.4531 45.648 72.2131 45.288 72.7891 44.568C73.3651 43.848 73.6531 42.888 73.6531 41.688C73.6531 40.6 73.3971 39.76 72.8851 39.168C72.3891 38.576 71.7011 38.28 70.8211 38.28C69.8451 38.28 69.0691 38.64 68.4931 39.36C67.9171 40.08 67.6291 41.032 67.6291 42.216C67.6291 43.304 67.8771 44.152 68.3731 44.76C68.8851 45.352 69.5971 45.648 70.5091 45.648ZM79.2202 48V35.88H82.1482L82.0042 38.928C82.4682 37.888 83.1002 37.088 83.9002 36.528C84.7002 35.968 85.6122 35.688 86.6362 35.688C87.9962 35.688 89.0202 36.16 89.7082 37.104C90.4122 38.032 90.7562 39.368 90.7402 41.112L90.6922 48H87.7642L87.8122 41.352C87.8282 40.408 87.6762 39.688 87.3562 39.192C87.0522 38.68 86.5562 38.424 85.8682 38.424C85.3402 38.424 84.8522 38.576 84.4042 38.88C83.9562 39.184 83.5642 39.704 83.2282 40.44C82.8922 41.16 82.6282 42.144 82.4362 43.392C82.2442 44.624 82.1402 46.16 82.1242 48H79.2202ZM105.009 30.24V48H102.033L102.129 45.888C101.697 46.64 101.137 47.216 100.449 47.616C99.7611 48.016 98.9611 48.216 98.0491 48.216C96.9931 48.216 96.0971 47.976 95.3611 47.496C94.6251 47 94.0651 46.32 93.6811 45.456C93.2971 44.592 93.1051 43.6 93.1051 42.48C93.1051 41.136 93.3691 39.96 93.8971 38.952C94.4251 37.928 95.1451 37.128 96.0571 36.552C96.9851 35.976 98.0251 35.688 99.1771 35.688C99.7851 35.688 100.337 35.792 100.833 36C101.345 36.208 101.769 36.496 102.105 36.864L102.081 35.88V30.24H105.009ZM99.3931 38.28C98.4011 38.28 97.6091 38.656 97.0171 39.408C96.4251 40.16 96.1291 41.144 96.1291 42.36C96.1291 43.4 96.3531 44.208 96.8011 44.784C97.2491 45.36 97.8651 45.648 98.6491 45.648C99.2891 45.648 99.8651 45.464 100.377 45.096C100.905 44.728 101.321 44.216 101.625 43.56C101.929 42.904 102.081 42.152 102.081 41.304C102.081 40.36 101.841 39.624 101.361 39.096C100.881 38.552 100.225 38.28 99.3931 38.28ZM111.047 35.88V48H108.119V35.88H111.047ZM109.583 33.96C109.007 33.96 108.551 33.784 108.215 33.432C107.879 33.08 107.711 32.656 107.711 32.16C107.711 31.664 107.879 31.24 108.215 30.888C108.551 30.536 109.007 30.36 109.583 30.36C110.159 30.36 110.615 30.536 110.951 30.888C111.287 31.24 111.455 31.664 111.455 32.16C111.455 32.656 111.287 33.08 110.951 33.432C110.615 33.784 110.159 33.96 109.583 33.96ZM119.565 48.216C117.725 48.216 116.269 47.688 115.197 46.632C114.125 45.56 113.589 44.072 113.589 42.168C113.589 40.888 113.853 39.76 114.381 38.784C114.909 37.808 115.645 37.048 116.589 36.504C117.533 35.96 118.621 35.688 119.853 35.688C120.877 35.688 121.773 35.888 122.541 36.288C123.309 36.688 123.933 37.312 124.413 38.16L122.325 39.744C122.021 39.232 121.669 38.864 121.269 38.64C120.885 38.416 120.413 38.304 119.853 38.304C118.909 38.304 118.133 38.656 117.525 39.36C116.933 40.064 116.637 40.992 116.637 42.144C116.637 43.264 116.901 44.128 117.429 44.736C117.973 45.328 118.749 45.624 119.757 45.624C120.285 45.624 120.773 45.504 121.221 45.264C121.685 45.024 122.069 44.648 122.373 44.136L124.413 45.768C123.869 46.648 123.181 47.28 122.349 47.664C121.517 48.032 120.589 48.216 119.565 48.216ZM118.821 53.352C118.325 53.352 117.821 53.296 117.309 53.184C116.797 53.088 116.373 52.96 116.037 52.8L116.685 51.288C117.357 51.576 118.061 51.72 118.797 51.72C119.117 51.72 119.373 51.656 119.565 51.528C119.757 51.416 119.853 51.248 119.853 51.024C119.853 50.848 119.773 50.704 119.613 50.592C119.469 50.48 119.197 50.424 118.797 50.424H117.477L118.869 47.568H120.813L120.189 48.984C121.581 49.24 122.277 49.928 122.277 51.048C122.277 51.752 121.965 52.312 121.341 52.728C120.733 53.144 119.893 53.352 118.821 53.352ZM131.221 35.688C133.029 35.688 134.445 36.232 135.469 37.32C136.509 38.392 137.029 39.848 137.029 41.688C137.029 42.936 136.765 44.056 136.237 45.048C135.725 46.024 134.997 46.8 134.053 47.376C133.109 47.936 132.013 48.216 130.765 48.216C128.957 48.216 127.533 47.68 126.493 46.608C125.469 45.536 124.957 44.072 124.957 42.216C124.957 40.968 125.213 39.856 125.725 38.88C126.253 37.888 126.981 37.112 127.909 36.552C128.853 35.976 129.957 35.688 131.221 35.688ZM130.861 45.648C131.805 45.648 132.565 45.288 133.141 44.568C133.717 43.848 134.005 42.888 134.005 41.688C134.005 40.6 133.749 39.76 133.237 39.168C132.741 38.576 132.053 38.28 131.173 38.28C130.197 38.28 129.421 38.64 128.845 39.36C128.269 40.08 127.981 41.032 127.981 42.216C127.981 43.304 128.229 44.152 128.725 44.76C129.237 45.352 129.949 45.648 130.861 45.648ZM132.901 34.392C132.469 34.392 132.005 34.28 131.509 34.056C131.029 33.816 130.557 33.584 130.093 33.36C129.645 33.136 129.253 33.024 128.917 33.024C128.645 33.024 128.373 33.128 128.101 33.336C127.845 33.544 127.637 33.84 127.477 34.224L126.325 33.288C126.517 32.488 126.853 31.88 127.333 31.464C127.829 31.032 128.421 30.816 129.109 30.816C129.541 30.816 130.005 30.936 130.501 31.176C130.997 31.4 131.469 31.624 131.917 31.848C132.381 32.072 132.773 32.184 133.093 32.184C133.397 32.184 133.677 32.08 133.933 31.872C134.189 31.664 134.389 31.36 134.533 30.96L135.685 31.896C135.493 32.712 135.149 33.336 134.653 33.768C134.173 34.184 133.589 34.392 132.901 34.392ZM145.356 48.216C144.044 48.216 142.908 47.976 141.948 47.496C141.004 47 140.276 46.296 139.764 45.384C139.252 44.472 138.996 43.384 138.996 42.12C138.996 40.856 139.26 39.744 139.788 38.784C140.316 37.808 141.028 37.048 141.924 36.504C142.836 35.96 143.868 35.688 145.02 35.688C146.892 35.688 148.268 36.328 149.148 37.608C150.044 38.872 150.356 40.624 150.084 42.864H141.972C142.036 43.712 142.38 44.392 143.004 44.904C143.628 45.416 144.484 45.672 145.572 45.672C146.084 45.672 146.596 45.56 147.108 45.336C147.636 45.112 148.084 44.768 148.452 44.304L150.156 46.032C149.612 46.72 148.948 47.256 148.164 47.64C147.396 48.024 146.46 48.216 145.356 48.216ZM145.068 37.896C144.252 37.896 143.58 38.152 143.052 38.664C142.524 39.176 142.188 39.864 142.044 40.728H147.564C147.596 39.736 147.38 39.016 146.916 38.568C146.452 38.12 145.836 37.896 145.068 37.896ZM156.851 48.216C155.187 48.216 153.915 47.904 153.035 47.28C152.155 46.64 151.643 45.752 151.499 44.616L153.971 44.016C154.067 44.624 154.347 45.096 154.811 45.432C155.275 45.752 155.939 45.912 156.803 45.912C157.507 45.912 158.035 45.8 158.387 45.576C158.755 45.352 158.939 45.048 158.939 44.664C158.939 44.28 158.739 43.984 158.339 43.776C157.955 43.568 157.355 43.384 156.539 43.224C155.627 43.048 154.843 42.824 154.187 42.552C153.547 42.28 153.051 41.912 152.699 41.448C152.363 40.968 152.195 40.344 152.195 39.576C152.195 38.84 152.403 38.184 152.819 37.608C153.235 37.016 153.803 36.552 154.523 36.216C155.259 35.864 156.099 35.688 157.043 35.688C158.307 35.688 159.339 35.984 160.139 36.576C160.955 37.168 161.443 37.928 161.603 38.856L159.179 39.504C159.067 39.04 158.827 38.68 158.459 38.424C158.091 38.152 157.595 38.016 156.971 38.016C156.347 38.016 155.867 38.144 155.531 38.4C155.211 38.656 155.051 38.976 155.051 39.36C155.051 39.744 155.235 40.048 155.603 40.272C155.987 40.48 156.635 40.68 157.547 40.872C158.395 41.048 159.131 41.272 159.755 41.544C160.395 41.8 160.899 42.16 161.267 42.624C161.635 43.072 161.819 43.68 161.819 44.448C161.819 45.2 161.603 45.864 161.171 46.44C160.755 47 160.171 47.44 159.419 47.76C158.667 48.064 157.811 48.216 156.851 48.216ZM71.3834 63.648H63.9914V68.28H70.9994V70.968H63.9914V78H60.9434V60.96H71.3834V63.648ZM75.8903 65.88V78H72.9623V65.88H75.8903ZM73.0823 64.248L75.9383 60L78.9623 60.768L75.6983 64.248H73.0823ZM83.2572 78.216C81.5932 78.216 80.3212 77.904 79.4412 77.28C78.5612 76.64 78.0492 75.752 77.9052 74.616L80.3772 74.016C80.4732 74.624 80.7532 75.096 81.2172 75.432C81.6812 75.752 82.3452 75.912 83.2092 75.912C83.9132 75.912 84.4412 75.8 84.7932 75.576C85.1612 75.352 85.3452 75.048 85.3452 74.664C85.3452 74.28 85.1452 73.984 84.7452 73.776C84.3612 73.568 83.7612 73.384 82.9452 73.224C82.0332 73.048 81.2492 72.824 80.5932 72.552C79.9532 72.28 79.4572 71.912 79.1052 71.448C78.7692 70.968 78.6012 70.344 78.6012 69.576C78.6012 68.84 78.8092 68.184 79.2252 67.608C79.6412 67.016 80.2092 66.552 80.9292 66.216C81.6652 65.864 82.5052 65.688 83.4492 65.688C84.7132 65.688 85.7452 65.984 86.5452 66.576C87.3612 67.168 87.8492 67.928 88.0092 68.856L85.5852 69.504C85.4732 69.04 85.2332 68.68 84.8652 68.424C84.4972 68.152 84.0012 68.016 83.3772 68.016C82.7532 68.016 82.2732 68.144 81.9372 68.4C81.6172 68.656 81.4572 68.976 81.4572 69.36C81.4572 69.744 81.6412 70.048 82.0092 70.272C82.3932 70.48 83.0412 70.68 83.9532 70.872C84.8012 71.048 85.5372 71.272 86.1612 71.544C86.8012 71.8 87.3052 72.16 87.6732 72.624C88.0412 73.072 88.2252 73.68 88.2252 74.448C88.2252 75.2 88.0092 75.864 87.5772 76.44C87.1612 77 86.5772 77.44 85.8252 77.76C85.0732 78.064 84.2172 78.216 83.2572 78.216ZM93.2575 65.88V78H90.3295V65.88H93.2575ZM91.7935 63.96C91.2175 63.96 90.7615 63.784 90.4255 63.432C90.0895 63.08 89.9215 62.656 89.9215 62.16C89.9215 61.664 90.0895 61.24 90.4255 60.888C90.7615 60.536 91.2175 60.36 91.7935 60.36C92.3695 60.36 92.8255 60.536 93.1615 60.888C93.4975 61.24 93.6655 61.664 93.6655 62.16C93.6655 62.656 93.4975 63.08 93.1615 63.432C92.8255 63.784 92.3695 63.96 91.7935 63.96ZM101.776 78.216C99.9364 78.216 98.4804 77.688 97.4084 76.632C96.3364 75.56 95.8004 74.072 95.8004 72.168C95.8004 70.888 96.0644 69.76 96.5924 68.784C97.1204 67.808 97.8564 67.048 98.8004 66.504C99.7444 65.96 100.832 65.688 102.064 65.688C103.088 65.688 103.984 65.888 104.752 66.288C105.52 66.688 106.144 67.312 106.624 68.16L104.536 69.744C104.232 69.232 103.88 68.864 103.48 68.64C103.096 68.416 102.624 68.304 102.064 68.304C101.12 68.304 100.344 68.656 99.7364 69.36C99.1444 70.064 98.8484 70.992 98.8484 72.144C98.8484 73.264 99.1124 74.128 99.6404 74.736C100.184 75.328 100.96 75.624 101.968 75.624C102.496 75.624 102.984 75.504 103.432 75.264C103.896 75.024 104.28 74.648 104.584 74.136L106.624 75.768C106.08 76.648 105.392 77.28 104.56 77.664C103.728 78.032 102.8 78.216 101.776 78.216ZM119.072 65.928V78H116.096L116.192 75.888C115.76 76.624 115.192 77.2 114.488 77.616C113.8 78.016 113.008 78.216 112.112 78.216C111.056 78.216 110.16 77.976 109.424 77.496C108.688 77 108.128 76.32 107.744 75.456C107.36 74.592 107.168 73.6 107.168 72.48C107.168 71.136 107.432 69.96 107.96 68.952C108.488 67.928 109.208 67.128 110.12 66.552C111.048 65.976 112.088 65.688 113.24 65.688C114.008 65.688 114.688 65.856 115.28 66.192C115.872 66.512 116.328 66.944 116.648 67.488L116.936 65.928H119.072ZM113.456 68.28C112.464 68.28 111.672 68.656 111.08 69.408C110.488 70.16 110.192 71.144 110.192 72.36C110.192 73.4 110.416 74.208 110.864 74.784C111.312 75.36 111.928 75.648 112.712 75.648C113.352 75.648 113.928 75.464 114.44 75.096C114.968 74.728 115.384 74.216 115.688 73.56C115.992 72.904 116.144 72.152 116.144 71.304C116.144 70.36 115.904 69.624 115.424 69.096C114.944 68.552 114.288 68.28 113.456 68.28ZM126.429 78.216C124.765 78.216 123.493 77.904 122.613 77.28C121.733 76.64 121.221 75.752 121.077 74.616L123.549 74.016C123.645 74.624 123.925 75.096 124.389 75.432C124.853 75.752 125.517 75.912 126.381 75.912C127.085 75.912 127.613 75.8 127.965 75.576C128.333 75.352 128.517 75.048 128.517 74.664C128.517 74.28 128.317 73.984 127.917 73.776C127.533 73.568 126.933 73.384 126.117 73.224C125.205 73.048 124.421 72.824 123.765 72.552C123.125 72.28 122.629 71.912 122.277 71.448C121.941 70.968 121.773 70.344 121.773 69.576C121.773 68.84 121.981 68.184 122.397 67.608C122.813 67.016 123.381 66.552 124.101 66.216C124.837 65.864 125.677 65.688 126.621 65.688C127.885 65.688 128.917 65.984 129.717 66.576C130.533 67.168 131.021 67.928 131.181 68.856L128.757 69.504C128.645 69.04 128.405 68.68 128.037 68.424C127.669 68.152 127.173 68.016 126.549 68.016C125.925 68.016 125.445 68.144 125.109 68.4C124.789 68.656 124.629 68.976 124.629 69.36C124.629 69.744 124.813 70.048 125.181 70.272C125.565 70.48 126.213 70.68 127.125 70.872C127.973 71.048 128.709 71.272 129.333 71.544C129.973 71.8 130.477 72.16 130.845 72.624C131.213 73.072 131.397 73.68 131.397 74.448C131.397 75.2 131.181 75.864 130.749 76.44C130.333 77 129.749 77.44 128.997 77.76C128.245 78.064 127.389 78.216 126.429 78.216ZM145.121 78.216C143.809 78.216 142.673 77.976 141.713 77.496C140.769 77 140.041 76.296 139.529 75.384C139.017 74.472 138.761 73.384 138.761 72.12C138.761 70.856 139.025 69.744 139.553 68.784C140.081 67.808 140.793 67.048 141.689 66.504C142.601 65.96 143.633 65.688 144.785 65.688C146.657 65.688 148.033 66.328 148.913 67.608C149.809 68.872 150.121 70.624 149.849 72.864H141.737C141.801 73.712 142.145 74.392 142.769 74.904C143.393 75.416 144.249 75.672 145.337 75.672C145.849 75.672 146.361 75.56 146.873 75.336C147.401 75.112 147.849 74.768 148.217 74.304L149.921 76.032C149.377 76.72 148.713 77.256 147.929 77.64C147.161 78.024 146.225 78.216 145.121 78.216ZM144.833 67.896C144.017 67.896 143.345 68.152 142.817 68.664C142.289 69.176 141.953 69.864 141.809 70.728H147.329C147.361 69.736 147.145 69.016 146.681 68.568C146.217 68.12 145.601 67.896 144.833 67.896ZM46.6081 90.96L46.2241 93.696H40.9441V108H37.8241V93.696H32.3521V90.96H46.6081ZM54.1837 98.712C53.8637 98.6 53.4557 98.544 52.9597 98.544C52.0957 98.544 51.3997 98.864 50.8717 99.504C50.3437 100.128 49.9517 101.136 49.6957 102.528C49.4557 103.904 49.3357 105.728 49.3357 108H46.4317V100.176L46.4077 95.88H49.3357L49.1917 99.264C49.6077 97.968 50.1837 97.048 50.9197 96.504C51.6717 95.96 52.4717 95.688 53.3197 95.688C53.5757 95.688 53.8157 95.704 54.0397 95.736C54.2637 95.768 54.4717 95.816 54.6637 95.88L54.1837 98.712ZM66.97 95.928V108H63.994L64.09 105.888C63.658 106.624 63.09 107.2 62.386 107.616C61.698 108.016 60.906 108.216 60.01 108.216C58.954 108.216 58.058 107.976 57.322 107.496C56.586 107 56.026 106.32 55.642 105.456C55.258 104.592 55.066 103.6 55.066 102.48C55.066 101.136 55.33 99.96 55.858 98.952C56.386 97.928 57.106 97.128 58.018 96.552C58.946 95.976 59.986 95.688 61.138 95.688C61.906 95.688 62.586 95.856 63.178 96.192C63.77 96.512 64.226 96.944 64.546 97.488L64.834 95.928H66.97ZM61.354 98.28C60.362 98.28 59.57 98.656 58.978 99.408C58.386 100.16 58.09 101.144 58.09 102.36C58.09 103.4 58.314 104.208 58.762 104.784C59.21 105.36 59.826 105.648 60.61 105.648C61.25 105.648 61.826 105.464 62.338 105.096C62.866 104.728 63.282 104.216 63.586 103.56C63.89 102.904 64.042 102.152 64.042 101.304C64.042 100.36 63.802 99.624 63.322 99.096C62.842 98.552 62.186 98.28 61.354 98.28ZM75.2155 108.216C73.7595 108.216 72.6235 107.816 71.8075 107.016C71.0075 106.216 70.6155 105.168 70.6315 103.872L70.7275 98.328H68.6635V95.88H70.7755L70.7995 93.384H73.7275L73.6795 95.88H77.6395V98.328H73.6555L73.5835 103.56C73.5675 104.216 73.7275 104.736 74.0635 105.12C74.4155 105.488 74.9355 105.672 75.6235 105.672C75.9915 105.672 76.3355 105.624 76.6555 105.528C76.9755 105.432 77.3115 105.256 77.6635 105L78.5275 107.256C78.1595 107.576 77.6875 107.816 77.1115 107.976C76.5355 108.136 75.9035 108.216 75.2155 108.216ZM90.8997 95.928V108H87.9237L88.0197 105.888C87.5877 106.624 87.0197 107.2 86.3157 107.616C85.6277 108.016 84.8357 108.216 83.9397 108.216C82.8837 108.216 81.9877 107.976 81.2517 107.496C80.5157 107 79.9557 106.32 79.5717 105.456C79.1877 104.592 78.9957 103.6 78.9957 102.48C78.9957 101.136 79.2597 99.96 79.7877 98.952C80.3157 97.928 81.0357 97.128 81.9477 96.552C82.8757 95.976 83.9157 95.688 85.0677 95.688C85.8357 95.688 86.5157 95.856 87.1077 96.192C87.6997 96.512 88.1557 96.944 88.4757 97.488L88.7637 95.928H90.8997ZM85.2837 98.28C84.2917 98.28 83.4997 98.656 82.9077 99.408C82.3157 100.16 82.0197 101.144 82.0197 102.36C82.0197 103.4 82.2437 104.208 82.6917 104.784C83.1397 105.36 83.7557 105.648 84.5397 105.648C85.1797 105.648 85.7557 105.464 86.2677 105.096C86.7957 104.728 87.2117 104.216 87.5157 103.56C87.8197 102.904 87.9717 102.152 87.9717 101.304C87.9717 100.36 87.7317 99.624 87.2517 99.096C86.7717 98.552 86.1157 98.28 85.2837 98.28ZM94.0092 108V95.88H96.9372L96.7932 98.856C97.2892 97.752 97.9292 96.952 98.7132 96.456C99.5132 95.944 100.369 95.688 101.281 95.688C102.161 95.688 102.937 95.928 103.609 96.408C104.281 96.888 104.761 97.64 105.049 98.664C105.561 97.656 106.233 96.912 107.065 96.432C107.913 95.936 108.785 95.688 109.681 95.688C111.025 95.688 112.041 96.16 112.729 97.104C113.433 98.032 113.777 99.368 113.761 101.112L113.713 108H110.785L110.833 101.208C110.833 100.328 110.673 99.648 110.353 99.168C110.033 98.672 109.537 98.424 108.865 98.424C108.401 98.424 107.953 98.576 107.521 98.88C107.105 99.168 106.729 99.672 106.393 100.392C106.073 101.112 105.817 102.096 105.625 103.344C105.433 104.576 105.329 106.128 105.313 108H102.409V101.208C102.409 100.328 102.257 99.648 101.953 99.168C101.649 98.672 101.161 98.424 100.489 98.424C100.025 98.424 99.5772 98.576 99.1452 98.88C98.7292 99.168 98.3532 99.672 98.0172 100.392C97.6972 101.112 97.4332 102.096 97.2252 103.344C97.0332 104.576 96.9292 106.128 96.9132 108H94.0092ZM122.504 108.216C121.192 108.216 120.056 107.976 119.096 107.496C118.152 107 117.424 106.296 116.912 105.384C116.4 104.472 116.144 103.384 116.144 102.12C116.144 100.856 116.408 99.744 116.936 98.784C117.464 97.808 118.176 97.048 119.072 96.504C119.984 95.96 121.016 95.688 122.168 95.688C124.04 95.688 125.416 96.328 126.296 97.608C127.192 98.872 127.504 100.624 127.232 102.864H119.12C119.184 103.712 119.528 104.392 120.152 104.904C120.776 105.416 121.632 105.672 122.72 105.672C123.232 105.672 123.744 105.56 124.256 105.336C124.784 105.112 125.232 104.768 125.6 104.304L127.304 106.032C126.76 106.72 126.096 107.256 125.312 107.64C124.544 108.024 123.608 108.216 122.504 108.216ZM122.216 97.896C121.4 97.896 120.728 98.152 120.2 98.664C119.672 99.176 119.336 99.864 119.192 100.728H124.712C124.744 99.736 124.528 99.016 124.064 98.568C123.6 98.12 122.984 97.896 122.216 97.896ZM129.751 108V95.88H132.679L132.535 98.928C132.999 97.888 133.631 97.088 134.431 96.528C135.231 95.968 136.143 95.688 137.167 95.688C138.527 95.688 139.551 96.16 140.239 97.104C140.943 98.032 141.287 99.368 141.271 101.112L141.223 108H138.295L138.343 101.352C138.359 100.408 138.207 99.688 137.887 99.192C137.583 98.68 137.087 98.424 136.399 98.424C135.871 98.424 135.383 98.576 134.935 98.88C134.487 99.184 134.095 99.704 133.759 100.44C133.423 101.16 133.159 102.144 132.967 103.392C132.775 104.624 132.671 106.16 132.655 108H129.751ZM149.348 108.216C147.892 108.216 146.756 107.816 145.94 107.016C145.14 106.216 144.748 105.168 144.764 103.872L144.86 98.328H142.796V95.88H144.908L144.932 93.384H147.86L147.812 95.88H151.772V98.328H147.788L147.716 103.56C147.7 104.216 147.86 104.736 148.196 105.12C148.548 105.488 149.068 105.672 149.756 105.672C150.124 105.672 150.468 105.624 150.788 105.528C151.108 105.432 151.444 105.256 151.796 105L152.66 107.256C152.292 107.576 151.82 107.816 151.244 107.976C150.668 108.136 150.036 108.216 149.348 108.216ZM159.393 95.688C161.201 95.688 162.617 96.232 163.641 97.32C164.681 98.392 165.201 99.848 165.201 101.688C165.201 102.936 164.937 104.056 164.409 105.048C163.897 106.024 163.169 106.8 162.225 107.376C161.281 107.936 160.185 108.216 158.937 108.216C157.129 108.216 155.705 107.68 154.665 106.608C153.641 105.536 153.129 104.072 153.129 102.216C153.129 100.968 153.385 99.856 153.897 98.88C154.425 97.888 155.153 97.112 156.081 96.552C157.025 95.976 158.129 95.688 159.393 95.688ZM159.033 105.648C159.977 105.648 160.737 105.288 161.313 104.568C161.889 103.848 162.177 102.888 162.177 101.688C162.177 100.6 161.921 99.76 161.409 99.168C160.913 98.576 160.225 98.28 159.345 98.28C158.369 98.28 157.593 98.64 157.017 99.36C156.441 100.08 156.153 101.032 156.153 102.216C156.153 103.304 156.401 104.152 156.897 104.76C157.409 105.352 158.121 105.648 159.033 105.648ZM171.992 108.216C170.328 108.216 169.056 107.904 168.176 107.28C167.296 106.64 166.784 105.752 166.64 104.616L169.112 104.016C169.208 104.624 169.488 105.096 169.952 105.432C170.416 105.752 171.08 105.912 171.944 105.912C172.648 105.912 173.176 105.8 173.528 105.576C173.896 105.352 174.08 105.048 174.08 104.664C174.08 104.28 173.88 103.984 173.48 103.776C173.096 103.568 172.496 103.384 171.68 103.224C170.768 103.048 169.984 102.824 169.328 102.552C168.688 102.28 168.192 101.912 167.84 101.448C167.504 100.968 167.336 100.344 167.336 99.576C167.336 98.84 167.544 98.184 167.96 97.608C168.376 97.016 168.944 96.552 169.664 96.216C170.4 95.864 171.24 95.688 172.184 95.688C173.448 95.688 174.48 95.984 175.28 96.576C176.096 97.168 176.584 97.928 176.744 98.856L174.32 99.504C174.208 99.04 173.968 98.68 173.6 98.424C173.232 98.152 172.736 98.016 172.112 98.016C171.488 98.016 171.008 98.144 170.672 98.4C170.352 98.656 170.192 98.976 170.192 99.36C170.192 99.744 170.376 100.048 170.744 100.272C171.128 100.48 171.776 100.68 172.688 100.872C173.536 101.048 174.272 101.272 174.896 101.544C175.536 101.8 176.04 102.16 176.408 102.624C176.776 103.072 176.96 103.68 176.96 104.448C176.96 105.2 176.744 105.864 176.312 106.44C175.896 107 175.312 107.44 174.56 107.76C173.808 108.064 172.952 108.216 171.992 108.216Z" fill="#334B35"/>
<path fill-rule="evenodd" clip-rule="evenodd" d="M118.31 148.846C117.056 147.799 116.739 146.847 116.642 146.205V137H95.4695V142.279C97.2723 142.485 98.7306 143.238 99.8314 144.343C101.387 145.906 102.033 147.979 102.057 149.499C102.08 150.715 101.762 151.912 101.144 152.934C100.526 153.955 99.6354 154.756 98.5876 155.232C98.4287 155.581 98.2553 155.922 98.0675 156.255C98.2652 157.458 98.1216 158.697 97.6551 159.811C97.1885 160.926 96.4205 161.866 95.45 162.51C94.6092 163.04 93.7381 163.306 93.4044 163.374C92.2726 163.545 91.1187 163.352 90.0903 162.818C89.0619 162.285 88.2059 161.435 87.6319 160.379C87.2873 160.254 86.9489 160.111 86.6178 159.95C85.5277 160.303 84.3638 160.301 83.2752 159.942C82.1866 159.584 81.2228 158.887 80.5072 157.939C79.7163 156.897 79.0337 155.195 79.0597 153.251C76.8279 154.034 74.375 155.266 72.1951 157.157C68.7064 160.182 66 164.828 66 171.606V197.261H77.9893V169.78C77.9495 169.514 77.9495 169.243 77.9893 168.977V168.865L78.0435 168.703C78.1752 168.176 78.4583 167.707 78.8529 167.361C79.2476 167.015 79.7338 166.81 80.2432 166.775C80.7525 166.74 81.2592 166.877 81.6918 167.167C82.1244 167.456 82.4612 167.883 82.6546 168.388C82.7811 168.637 82.8446 168.916 82.8388 169.199V194.262C83.1277 194.169 83.4166 194.091 83.7055 194.028C84.7651 193.796 86.4488 193.618 87.8161 194.502C89.5907 195.647 90.4727 197.768 90.0956 199.823C90.1722 199.968 90.2451 200.115 90.3145 200.263C92.0913 201.127 93.3958 203.02 93.2181 205.343C93.0426 207.645 91.4846 209.322 89.6167 209.936C89.5113 210.098 89.4008 210.259 89.2852 210.418C89.3567 212.514 88.1498 214.455 86.2993 215.338C85.3978 215.766 84.4856 215.72 83.7965 215.569C83.4705 215.495 83.1503 215.395 82.8388 215.268V220.257H120.501L127.106 220.387V197.961C126.815 198.123 126.518 198.277 126.213 198.424C125.303 198.852 124.282 199.211 123.255 199.364C122.25 199.515 121.06 199.492 119.955 198.947C117.223 197.609 115.47 194.699 115.955 191.665C115.555 191.161 115.19 190.627 114.861 190.067C111.983 189.284 109.45 186.659 109.337 183.257C109.45 179.852 111.981 177.325 114.861 176.539C115.192 175.984 115.556 175.451 115.955 174.941C115.468 171.909 117.223 169 119.955 167.659C121.06 167.114 122.252 167.094 123.255 167.242C124.282 167.397 125.301 167.754 126.213 168.184C126.531 168.336 126.841 168.497 127.145 168.669C127.185 168.505 127.258 168.354 127.359 168.224C127.569 167.771 127.897 167.394 128.304 167.137C128.711 166.88 129.178 166.755 129.65 166.777C130.122 166.799 130.578 166.967 130.962 167.261C131.346 167.555 131.643 167.962 131.814 168.432C131.906 168.563 131.974 168.709 132.018 168.865V197.259H144.007V171.606C144.007 164.83 141.301 160.186 137.812 157.159C134.404 154.206 130.33 152.855 127.476 152.327C122.43 151.391 119.734 150.032 118.31 148.846ZM109.34 155.505C109.339 155.809 109.283 156.11 109.174 156.391C109.065 156.672 108.905 156.927 108.703 157.142C108.502 157.357 108.263 157.527 108 157.644C107.737 157.76 107.455 157.819 107.171 157.819C106.886 157.819 106.604 157.758 106.342 157.642C106.079 157.525 105.84 157.354 105.639 157.139C105.438 156.924 105.279 156.668 105.17 156.387C105.061 156.106 105.006 155.805 105.006 155.5C105.006 154.886 105.235 154.297 105.642 153.863C106.049 153.429 106.6 153.186 107.175 153.186C107.75 153.187 108.301 153.432 108.706 153.866C109.112 154.301 109.34 154.891 109.34 155.505ZM105.006 162.442C105.006 162.747 104.95 163.048 104.84 163.329C104.731 163.61 104.572 163.865 104.37 164.08C104.169 164.295 103.93 164.465 103.667 164.582C103.404 164.698 103.122 164.758 102.838 164.758C102.553 164.757 102.272 164.697 102.009 164.581C101.746 164.464 101.507 164.293 101.306 164.078C101.105 163.863 100.945 163.608 100.837 163.327C100.728 163.045 100.672 162.744 100.672 162.44C100.672 161.826 100.901 161.237 101.308 160.803C101.714 160.368 102.265 160.125 102.84 160.125C103.415 160.125 103.966 160.37 104.372 160.804C104.778 161.239 105.006 161.828 105.006 162.442ZM94.7111 198.866C95.0012 198.876 95.2903 198.824 95.5612 198.713C95.8321 198.601 96.0792 198.432 96.2879 198.216C96.4967 198.001 96.6627 197.742 96.7762 197.457C96.8897 197.171 96.9483 196.864 96.9486 196.554C96.9489 196.243 96.8908 195.936 96.7779 195.65C96.6649 195.364 96.4994 195.106 96.2911 194.889C96.0828 194.673 95.8359 194.504 95.5653 194.392C95.2946 194.279 95.0056 194.227 94.7154 194.236C94.1528 194.254 93.619 194.506 93.227 194.938C92.8349 195.37 92.6154 195.947 92.6148 196.549C92.6143 197.151 92.8327 197.729 93.224 198.161C93.6152 198.594 94.1485 198.847 94.7111 198.866ZM97.9614 205.283C98.2538 205.297 98.5459 205.248 98.82 205.138C99.0941 205.028 99.3446 204.86 99.5564 204.644C99.7681 204.428 99.9368 204.169 100.052 203.881C100.167 203.593 100.227 203.284 100.227 202.971C100.228 202.658 100.169 202.348 100.054 202.06C99.939 201.773 99.7709 201.513 99.5595 201.296C99.3482 201.08 99.098 200.911 98.824 200.801C98.5501 200.691 98.2581 200.641 97.9657 200.655C97.4083 200.681 96.8818 200.935 96.4958 201.366C96.1098 201.797 95.8941 202.37 95.8935 202.966C95.893 203.563 96.1076 204.136 96.4928 204.568C96.878 204.999 97.404 205.255 97.9614 205.283ZM113.363 197.546C113.651 197.592 113.926 197.7 114.174 197.863C114.421 198.026 114.636 198.24 114.804 198.493C114.972 198.746 115.091 199.033 115.154 199.336C115.216 199.639 115.221 199.953 115.168 200.258C115.115 200.563 115.004 200.854 114.844 201.113C114.683 201.372 114.476 201.593 114.233 201.765C113.991 201.936 113.719 202.053 113.433 202.11C113.147 202.166 112.854 202.16 112.57 202.093C112.291 202.037 112.025 201.923 111.786 201.758C111.548 201.592 111.343 201.378 111.182 201.127C111.021 200.876 110.908 200.594 110.849 200.297C110.79 200 110.787 199.693 110.839 199.394C110.891 199.096 110.998 198.811 111.153 198.556C111.308 198.302 111.508 198.082 111.743 197.91C111.977 197.738 112.241 197.618 112.519 197.555C112.797 197.492 113.084 197.49 113.363 197.546ZM111.827 193.708C111.919 193.11 111.789 192.497 111.463 192C111.137 191.504 110.642 191.164 110.085 191.054C109.527 190.943 108.951 191.07 108.48 191.409C108.01 191.747 107.682 192.269 107.567 192.862C107.475 193.461 107.606 194.074 107.931 194.57C108.257 195.066 108.752 195.406 109.31 195.517C109.867 195.627 110.443 195.5 110.914 195.162C111.385 194.824 111.712 194.302 111.827 193.708Z" fill="#334B35"/>
<path d="M127.106 174.237L127.047 174.281C126.982 174.18 126.727 173.878 126.202 173.475C125.656 173.06 125.071 172.705 124.458 172.415C123.886 172.131 123.28 171.932 122.657 171.824C122.111 171.745 121.847 171.824 121.767 171.861C120.222 172.618 120.048 173.867 120.352 174.587L120.969 176.046L119.907 177.177C119.184 177.951 118.594 178.798 118.157 179.69L117.621 180.779L116.477 180.918C114.592 181.14 113.699 182.433 113.671 183.303C113.701 184.177 114.594 185.469 116.477 185.694L117.621 185.828L118.157 186.917C118.594 187.811 119.184 188.659 119.91 189.432L120.971 190.563L120.352 192.022C120.048 192.74 120.222 193.991 121.767 194.748C121.847 194.788 122.113 194.864 122.655 194.783C123.179 194.704 123.803 194.503 124.458 194.195C125.104 193.889 125.715 193.509 126.204 193.132C126.727 192.729 126.982 192.43 127.047 192.328L127.106 192.372V174.237ZM82.8387 209.927L82.9254 209.879L82.9189 209.867L82.9168 209.862C82.9168 209.862 82.9883 209.967 83.1854 210.152C83.4 210.353 83.673 210.562 83.9655 210.731C84.2602 210.907 84.5072 211.002 84.6654 211.037C84.7714 210.969 84.8571 210.87 84.9124 210.752C84.9326 210.711 84.9449 210.666 84.9487 210.62C84.9524 210.574 84.9474 210.527 84.9341 210.483L84.4791 209.11L85.4455 208.079C85.8054 207.693 86.1125 207.255 86.3577 206.777L86.9211 205.656L88.1107 205.563C88.3344 205.55 88.5477 205.458 88.7175 205.301C88.8518 205.172 88.8908 205.051 88.8973 204.966C88.9038 204.887 88.8865 204.794 88.802 204.688C88.6703 204.536 88.4948 204.436 88.3036 204.403L87.0771 204.155L86.6611 202.897C86.4988 202.409 86.2679 201.951 85.9764 201.537L85.1421 200.356L85.7987 199.052C85.8216 199.011 85.8365 198.966 85.8425 198.919C85.8485 198.872 85.8453 198.824 85.8334 198.779C85.7943 198.659 85.7178 198.556 85.6167 198.489L85.439 198.466C85.1484 198.46 84.8582 198.491 84.5744 198.559C83.9647 198.687 83.3789 198.921 82.8409 199.254L82.8387 209.927ZM83.66 152.103C83.5083 152.441 83.439 152.747 83.4108 153.006C83.309 153.93 83.6513 154.732 83.8745 155.026C84.3339 155.628 85.0815 155.732 85.5972 155.408L86.6806 154.727L87.7705 155.392C88.3708 155.758 89.0187 156.034 89.6926 156.205L90.8843 156.511L91.2527 157.755C91.4651 158.459 92.1021 159.017 92.7782 158.797C92.9226 158.753 93.0569 158.677 93.1726 158.575C93.7446 158.128 93.9765 157.416 93.7143 156.728L93.2484 155.524L93.9765 154.472C94.3882 153.879 94.7175 153.222 94.9581 152.531L95.3958 151.274L96.6352 151.051C96.9507 150.984 97.2334 150.798 97.4327 150.529C97.632 150.259 97.7349 149.922 97.723 149.578C97.7165 149.2 97.4976 148.35 96.8627 147.713C96.5117 147.361 95.9397 146.979 94.9841 146.873C94.6473 147.381 94.2361 147.827 93.7663 148.195C92.2278 149.46 89.2679 150.954 83.6578 152.105" fill="#334B35"/>
</svg>
