<svg width="210" height="232" viewBox="0 0 210 232" fill="none" xmlns="http://www.w3.org/2000/svg">
<rect opacity="0.85" x="0.0102539" width="209.01" height="231.95" rx="15" fill="#D9D9D9"/>
<path d="M54.6414 44.688C53.9694 45.824 53.0414 46.696 51.8574 47.304C50.6734 47.912 49.3454 48.216 47.8734 48.216C46.1294 48.216 44.6334 47.88 43.3854 47.208C42.1374 46.536 41.1774 45.576 40.5054 44.328C39.8494 43.064 39.5214 41.56 39.5214 39.816C39.5214 38.008 39.8894 36.424 40.6254 35.064C41.3614 33.704 42.3854 32.64 43.6974 31.872C45.0094 31.104 46.5294 30.72 48.2574 30.72C49.7294 30.72 50.9854 31 52.0254 31.56C53.0814 32.12 53.9614 32.968 54.6654 34.104L52.2654 35.832C51.8334 35.032 51.2654 34.448 50.5614 34.08C49.8574 33.712 49.0814 33.528 48.2334 33.528C47.1454 33.528 46.1854 33.792 45.3534 34.32C44.5214 34.848 43.8654 35.584 43.3854 36.528C42.9214 37.456 42.6894 38.536 42.6894 39.768C42.6894 41.544 43.1454 42.928 44.0574 43.92C44.9854 44.912 46.2734 45.408 47.9214 45.408C48.8334 45.408 49.6734 45.2 50.4414 44.784C51.2094 44.368 51.8334 43.736 52.3134 42.888L54.6414 44.688ZM61.6738 35.688C63.4818 35.688 64.8978 36.232 65.9218 37.32C66.9618 38.392 67.4818 39.848 67.4818 41.688C67.4818 42.936 67.2178 44.056 66.6898 45.048C66.1778 46.024 65.4498 46.8 64.5058 47.376C63.5618 47.936 62.4658 48.216 61.2178 48.216C59.4098 48.216 57.9858 47.68 56.9458 46.608C55.9218 45.536 55.4098 44.072 55.4098 42.216C55.4098 40.968 55.6658 39.856 56.1778 38.88C56.7058 37.888 57.4338 37.112 58.3618 36.552C59.3058 35.976 60.4098 35.688 61.6738 35.688ZM61.3138 45.648C62.2578 45.648 63.0178 45.288 63.5938 44.568C64.1698 43.848 64.4578 42.888 64.4578 41.688C64.4578 40.6 64.2018 39.76 63.6898 39.168C63.1938 38.576 62.5058 38.28 61.6258 38.28C60.6498 38.28 59.8738 38.64 59.2978 39.36C58.7218 40.08 58.4338 41.032 58.4338 42.216C58.4338 43.304 58.6818 44.152 59.1778 44.76C59.6898 45.352 60.4018 45.648 61.3138 45.648ZM70.0248 48V35.88H72.9528L72.8088 38.928C73.2728 37.888 73.9048 37.088 74.7048 36.528C75.5048 35.968 76.4168 35.688 77.4408 35.688C78.8008 35.688 79.8248 36.16 80.5128 37.104C81.2168 38.032 81.5608 39.368 81.5448 41.112L81.4968 48H78.5688L78.6168 41.352C78.6328 40.408 78.4808 39.688 78.1608 39.192C77.8568 38.68 77.3608 38.424 76.6728 38.424C76.1448 38.424 75.6568 38.576 75.2088 38.88C74.7608 39.184 74.3688 39.704 74.0328 40.44C73.6968 41.16 73.4328 42.144 73.2408 43.392C73.0488 44.624 72.9448 46.16 72.9288 48H70.0248ZM89.6218 48.216C88.1658 48.216 87.0298 47.816 86.2138 47.016C85.4138 46.216 85.0218 45.168 85.0378 43.872L85.1338 38.328H83.0698V35.88H85.1818L85.2058 33.384H88.1338L88.0858 35.88H92.0458V38.328H88.0618L87.9898 43.56C87.9738 44.216 88.1338 44.736 88.4698 45.12C88.8218 45.488 89.3418 45.672 90.0298 45.672C90.3978 45.672 90.7418 45.624 91.0618 45.528C91.3818 45.432 91.7178 45.256 92.0698 45L92.9338 47.256C92.5658 47.576 92.0938 47.816 91.5178 47.976C90.9418 48.136 90.3098 48.216 89.6218 48.216ZM101.988 38.712C101.668 38.6 101.26 38.544 100.764 38.544C99.9003 38.544 99.2043 38.864 98.6763 39.504C98.1483 40.128 97.7563 41.136 97.5003 42.528C97.2603 43.904 97.1403 45.728 97.1403 48H94.2363V40.176L94.2123 35.88H97.1403L96.9963 39.264C97.4123 37.968 97.9883 37.048 98.7243 36.504C99.4763 35.96 100.276 35.688 101.124 35.688C101.38 35.688 101.62 35.704 101.844 35.736C102.068 35.768 102.276 35.816 102.468 35.88L101.988 38.712ZM109.135 35.688C110.943 35.688 112.359 36.232 113.383 37.32C114.423 38.392 114.943 39.848 114.943 41.688C114.943 42.936 114.679 44.056 114.151 45.048C113.639 46.024 112.911 46.8 111.967 47.376C111.023 47.936 109.927 48.216 108.679 48.216C106.871 48.216 105.447 47.68 104.407 46.608C103.383 45.536 102.871 44.072 102.871 42.216C102.871 40.968 103.127 39.856 103.639 38.88C104.167 37.888 104.895 37.112 105.823 36.552C106.767 35.976 107.871 35.688 109.135 35.688ZM108.775 45.648C109.719 45.648 110.479 45.288 111.055 44.568C111.631 43.848 111.919 42.888 111.919 41.688C111.919 40.6 111.663 39.76 111.151 39.168C110.655 38.576 109.967 38.28 109.087 38.28C108.111 38.28 107.335 38.64 106.759 39.36C106.183 40.08 105.895 41.032 105.895 42.216C105.895 43.304 106.143 44.152 106.639 44.76C107.151 45.352 107.863 45.648 108.775 45.648ZM120.99 48.216C119.838 48.216 118.966 47.904 118.374 47.28C117.782 46.656 117.486 45.768 117.486 44.616V30.24H120.414V44.376C120.414 45.24 120.814 45.672 121.614 45.672C122.014 45.672 122.366 45.576 122.67 45.384L123.39 47.52C123.134 47.712 122.79 47.872 122.358 48C121.926 48.144 121.47 48.216 120.99 48.216ZM130.16 48.216C128.848 48.216 127.712 47.976 126.752 47.496C125.808 47 125.08 46.296 124.568 45.384C124.056 44.472 123.8 43.384 123.8 42.12C123.8 40.856 124.064 39.744 124.592 38.784C125.12 37.808 125.832 37.048 126.728 36.504C127.64 35.96 128.672 35.688 129.824 35.688C131.696 35.688 133.072 36.328 133.952 37.608C134.848 38.872 135.16 40.624 134.888 42.864H126.776C126.84 43.712 127.184 44.392 127.808 44.904C128.432 45.416 129.288 45.672 130.376 45.672C130.888 45.672 131.4 45.56 131.912 45.336C132.44 45.112 132.888 44.768 133.256 44.304L134.96 46.032C134.416 46.72 133.752 47.256 132.968 47.64C132.2 48.024 131.264 48.216 130.16 48.216ZM129.872 37.896C129.056 37.896 128.384 38.152 127.856 38.664C127.328 39.176 126.992 39.864 126.848 40.728H132.368C132.4 39.736 132.184 39.016 131.72 38.568C131.256 38.12 130.64 37.896 129.872 37.896ZM154.572 30.24V48H151.596L151.692 45.888C151.26 46.64 150.7 47.216 150.012 47.616C149.324 48.016 148.524 48.216 147.612 48.216C146.556 48.216 145.66 47.976 144.924 47.496C144.188 47 143.628 46.32 143.244 45.456C142.86 44.592 142.668 43.6 142.668 42.48C142.668 41.136 142.932 39.96 143.46 38.952C143.988 37.928 144.708 37.128 145.62 36.552C146.548 35.976 147.588 35.688 148.74 35.688C149.348 35.688 149.9 35.792 150.396 36C150.908 36.208 151.332 36.496 151.668 36.864L151.644 35.88V30.24H154.572ZM148.956 38.28C147.964 38.28 147.172 38.656 146.58 39.408C145.988 40.16 145.692 41.144 145.692 42.36C145.692 43.4 145.916 44.208 146.364 44.784C146.812 45.36 147.428 45.648 148.212 45.648C148.852 45.648 149.428 45.464 149.94 45.096C150.468 44.728 150.884 44.216 151.188 43.56C151.492 42.904 151.644 42.152 151.644 41.304C151.644 40.36 151.404 39.624 150.924 39.096C150.444 38.552 149.788 38.28 148.956 38.28ZM169.009 35.928V48H166.033L166.129 45.888C165.697 46.624 165.129 47.2 164.425 47.616C163.737 48.016 162.945 48.216 162.049 48.216C160.993 48.216 160.097 47.976 159.361 47.496C158.625 47 158.065 46.32 157.681 45.456C157.297 44.592 157.105 43.6 157.105 42.48C157.105 41.136 157.369 39.96 157.897 38.952C158.425 37.928 159.145 37.128 160.057 36.552C160.985 35.976 162.025 35.688 163.177 35.688C163.945 35.688 164.625 35.856 165.217 36.192C165.809 36.512 166.265 36.944 166.585 37.488L166.873 35.928H169.009ZM163.393 38.28C162.401 38.28 161.609 38.656 161.017 39.408C160.425 40.16 160.129 41.144 160.129 42.36C160.129 43.4 160.353 44.208 160.801 44.784C161.249 45.36 161.865 45.648 162.649 45.648C163.289 45.648 163.865 45.464 164.377 45.096C164.905 44.728 165.321 44.216 165.625 43.56C165.929 42.904 166.081 42.152 166.081 41.304C166.081 40.36 165.841 39.624 165.361 39.096C164.881 38.552 164.225 38.28 163.393 38.28ZM75.9239 78V60.96H80.9879C84.2999 60.96 86.8039 61.672 88.4999 63.096C90.1959 64.52 91.0439 66.624 91.0439 69.408C91.0439 71.136 90.6679 72.648 89.9159 73.944C89.1639 75.224 88.0999 76.224 86.7239 76.944C85.3479 77.648 83.7319 78 81.8759 78H75.9239ZM79.0439 75.24H81.7559C83.7559 75.24 85.2759 74.76 86.3159 73.8C87.3559 72.824 87.8759 71.4 87.8759 69.528C87.8759 67.576 87.3399 66.12 86.2679 65.16C85.2119 64.2 83.5879 63.72 81.3959 63.72H79.0439V75.24ZM99.373 65.688C101.181 65.688 102.597 66.232 103.621 67.32C104.661 68.392 105.181 69.848 105.181 71.688C105.181 72.936 104.917 74.056 104.389 75.048C103.877 76.024 103.149 76.8 102.205 77.376C101.261 77.936 100.165 78.216 98.917 78.216C97.109 78.216 95.685 77.68 94.645 76.608C93.621 75.536 93.109 74.072 93.109 72.216C93.109 70.968 93.365 69.856 93.877 68.88C94.405 67.888 95.133 67.112 96.061 66.552C97.005 65.976 98.109 65.688 99.373 65.688ZM99.013 75.648C99.957 75.648 100.717 75.288 101.293 74.568C101.869 73.848 102.157 72.888 102.157 71.688C102.157 70.6 101.901 69.76 101.389 69.168C100.893 68.576 100.205 68.28 99.325 68.28C98.349 68.28 97.573 68.64 96.997 69.36C96.421 70.08 96.133 71.032 96.133 72.216C96.133 73.304 96.381 74.152 96.877 74.76C97.389 75.352 98.101 75.648 99.013 75.648ZM115.5 68.712C115.18 68.6 114.772 68.544 114.276 68.544C113.412 68.544 112.716 68.864 112.188 69.504C111.66 70.128 111.268 71.136 111.012 72.528C110.772 73.904 110.652 75.728 110.652 78H107.748V70.176L107.724 65.88H110.652L110.508 69.264C110.924 67.968 111.5 67.048 112.236 66.504C112.988 65.96 113.788 65.688 114.636 65.688C114.892 65.688 115.132 65.704 115.356 65.736C115.58 65.768 115.788 65.816 115.98 65.88L115.5 68.712ZM129.141 78.216C127.829 78.216 126.693 77.976 125.733 77.496C124.789 77 124.061 76.296 123.549 75.384C123.037 74.472 122.781 73.384 122.781 72.12C122.781 70.856 123.045 69.744 123.573 68.784C124.101 67.808 124.813 67.048 125.709 66.504C126.621 65.96 127.653 65.688 128.805 65.688C130.677 65.688 132.053 66.328 132.933 67.608C133.829 68.872 134.141 70.624 133.869 72.864H125.757C125.821 73.712 126.165 74.392 126.789 74.904C127.413 75.416 128.269 75.672 129.357 75.672C129.869 75.672 130.381 75.56 130.893 75.336C131.421 75.112 131.869 74.768 132.237 74.304L133.941 76.032C133.397 76.72 132.733 77.256 131.949 77.64C131.181 78.024 130.245 78.216 129.141 78.216ZM128.853 67.896C128.037 67.896 127.365 68.152 126.837 68.664C126.309 69.176 125.973 69.864 125.829 70.728H131.349C131.381 69.736 131.165 69.016 130.701 68.568C130.237 68.12 129.621 67.896 128.853 67.896ZM37.2286 108V90.96H40.3486V108H37.2286ZM43.6694 108V95.88H46.5974L46.4534 98.928C46.9174 97.888 47.5494 97.088 48.3494 96.528C49.1494 95.968 50.0614 95.688 51.0854 95.688C52.4454 95.688 53.4694 96.16 54.1574 97.104C54.8614 98.032 55.2054 99.368 55.1894 101.112L55.1414 108H52.2134L52.2614 101.352C52.2774 100.408 52.1254 99.688 51.8054 99.192C51.5014 98.68 51.0054 98.424 50.3174 98.424C49.7894 98.424 49.3014 98.576 48.8534 98.88C48.4054 99.184 48.0134 99.704 47.6774 100.44C47.3414 101.16 47.0774 102.144 46.8854 103.392C46.6934 104.624 46.5894 106.16 46.5734 108H43.6694ZM58.7303 108V98.328H56.4263V95.88H58.7303V95.352C58.7303 94.248 58.9463 93.296 59.3783 92.496C59.8103 91.696 60.4023 91.08 61.1543 90.648C61.9223 90.216 62.7943 90 63.7703 90C64.8583 90 65.6903 90.232 66.2663 90.696L65.0423 92.808C64.6743 92.584 64.2503 92.472 63.7703 92.472C63.1143 92.472 62.5943 92.688 62.2103 93.12C61.8263 93.552 61.6343 94.2 61.6343 95.064V95.88H65.2343V98.328H61.6823V108H58.7303ZM70.3223 108.216C69.1703 108.216 68.2983 107.904 67.7063 107.28C67.1143 106.656 66.8183 105.768 66.8183 104.616V90.24H69.7463V104.376C69.7463 105.24 70.1463 105.672 70.9463 105.672C71.3463 105.672 71.6983 105.576 72.0023 105.384L72.7223 107.52C72.4663 107.712 72.1223 107.872 71.6903 108C71.2583 108.144 70.8023 108.216 70.3223 108.216ZM85.0677 95.928V108H82.0917L82.1877 105.888C81.7557 106.624 81.1877 107.2 80.4837 107.616C79.7957 108.016 79.0037 108.216 78.1077 108.216C77.0517 108.216 76.1557 107.976 75.4197 107.496C74.6837 107 74.1237 106.32 73.7397 105.456C73.3557 104.592 73.1637 103.6 73.1637 102.48C73.1637 101.136 73.4277 99.96 73.9557 98.952C74.4837 97.928 75.2037 97.128 76.1157 96.552C77.0437 95.976 78.0837 95.688 79.2357 95.688C80.0037 95.688 80.6837 95.856 81.2757 96.192C81.8677 96.512 82.3237 96.944 82.6437 97.488L82.9317 95.928H85.0677ZM79.4517 98.28C78.4597 98.28 77.6677 98.656 77.0757 99.408C76.4837 100.16 76.1877 101.144 76.1877 102.36C76.1877 103.4 76.4117 104.208 76.8597 104.784C77.3077 105.36 77.9237 105.648 78.7077 105.648C79.3477 105.648 79.9237 105.464 80.4357 105.096C80.9637 104.728 81.3797 104.216 81.6837 103.56C81.9877 102.904 82.1397 102.152 82.1397 101.304C82.1397 100.36 81.8997 99.624 81.4197 99.096C80.9397 98.552 80.2837 98.28 79.4517 98.28ZM88.1772 108V95.88H91.1052L90.9612 98.856C91.4572 97.752 92.0972 96.952 92.8812 96.456C93.6812 95.944 94.5372 95.688 95.4492 95.688C96.3292 95.688 97.1052 95.928 97.7772 96.408C98.4492 96.888 98.9292 97.64 99.2172 98.664C99.7292 97.656 100.401 96.912 101.233 96.432C102.081 95.936 102.953 95.688 103.849 95.688C105.193 95.688 106.209 96.16 106.897 97.104C107.601 98.032 107.945 99.368 107.929 101.112L107.881 108H104.953L105.001 101.208C105.001 100.328 104.841 99.648 104.521 99.168C104.201 98.672 103.705 98.424 103.033 98.424C102.569 98.424 102.121 98.576 101.689 98.88C101.273 99.168 100.897 99.672 100.561 100.392C100.241 101.112 99.9852 102.096 99.7932 103.344C99.6012 104.576 99.4972 106.128 99.4812 108H96.5772V101.208C96.5772 100.328 96.4252 99.648 96.1212 99.168C95.8172 98.672 95.3292 98.424 94.6572 98.424C94.1932 98.424 93.7452 98.576 93.3132 98.88C92.8972 99.168 92.5212 99.672 92.1852 100.392C91.8652 101.112 91.6012 102.096 91.3932 103.344C91.2012 104.576 91.0972 106.128 91.0812 108H88.1772ZM122.216 95.928V108H119.24L119.336 105.888C118.904 106.624 118.336 107.2 117.632 107.616C116.944 108.016 116.152 108.216 115.256 108.216C114.2 108.216 113.304 107.976 112.568 107.496C111.832 107 111.272 106.32 110.888 105.456C110.504 104.592 110.312 103.6 110.312 102.48C110.312 101.136 110.576 99.96 111.104 98.952C111.632 97.928 112.352 97.128 113.264 96.552C114.192 95.976 115.232 95.688 116.384 95.688C117.152 95.688 117.832 95.856 118.424 96.192C119.016 96.512 119.472 96.944 119.792 97.488L120.08 95.928H122.216ZM116.6 98.28C115.608 98.28 114.816 98.656 114.224 99.408C113.632 100.16 113.336 101.144 113.336 102.36C113.336 103.4 113.56 104.208 114.008 104.784C114.456 105.36 115.072 105.648 115.856 105.648C116.496 105.648 117.072 105.464 117.584 105.096C118.112 104.728 118.528 104.216 118.832 103.56C119.136 102.904 119.288 102.152 119.288 101.304C119.288 100.36 119.048 99.624 118.568 99.096C118.088 98.552 117.432 98.28 116.6 98.28ZM130.726 108.216C128.886 108.216 127.43 107.688 126.358 106.632C125.286 105.56 124.75 104.072 124.75 102.168C124.75 100.888 125.014 99.76 125.542 98.784C126.07 97.808 126.806 97.048 127.75 96.504C128.694 95.96 129.782 95.688 131.014 95.688C132.038 95.688 132.934 95.888 133.702 96.288C134.47 96.688 135.094 97.312 135.574 98.16L133.486 99.744C133.182 99.232 132.83 98.864 132.43 98.64C132.046 98.416 131.574 98.304 131.014 98.304C130.07 98.304 129.294 98.656 128.686 99.36C128.094 100.064 127.798 100.992 127.798 102.144C127.798 103.264 128.062 104.128 128.59 104.736C129.134 105.328 129.91 105.624 130.918 105.624C131.446 105.624 131.934 105.504 132.382 105.264C132.846 105.024 133.23 104.648 133.534 104.136L135.574 105.768C135.03 106.648 134.342 107.28 133.51 107.664C132.678 108.032 131.75 108.216 130.726 108.216ZM129.982 113.352C129.486 113.352 128.982 113.296 128.47 113.184C127.958 113.088 127.534 112.96 127.198 112.8L127.846 111.288C128.518 111.576 129.222 111.72 129.958 111.72C130.278 111.72 130.534 111.656 130.726 111.528C130.918 111.416 131.014 111.248 131.014 111.024C131.014 110.848 130.934 110.704 130.774 110.592C130.63 110.48 130.358 110.424 129.958 110.424H128.638L130.03 107.568H131.974L131.35 108.984C132.742 109.24 133.438 109.928 133.438 111.048C133.438 111.752 133.126 112.312 132.502 112.728C131.894 113.144 131.054 113.352 129.982 113.352ZM142.381 95.688C144.189 95.688 145.605 96.232 146.629 97.32C147.669 98.392 148.189 99.848 148.189 101.688C148.189 102.936 147.925 104.056 147.397 105.048C146.885 106.024 146.157 106.8 145.213 107.376C144.269 107.936 143.173 108.216 141.925 108.216C140.117 108.216 138.693 107.68 137.653 106.608C136.629 105.536 136.117 104.072 136.117 102.216C136.117 100.968 136.373 99.856 136.885 98.88C137.413 97.888 138.141 97.112 139.069 96.552C140.013 95.976 141.117 95.688 142.381 95.688ZM142.021 105.648C142.965 105.648 143.725 105.288 144.301 104.568C144.877 103.848 145.165 102.888 145.165 101.688C145.165 100.6 144.909 99.76 144.397 99.168C143.901 98.576 143.213 98.28 142.333 98.28C141.357 98.28 140.581 98.64 140.005 99.36C139.429 100.08 139.141 101.032 139.141 102.216C139.141 103.304 139.389 104.152 139.885 104.76C140.397 105.352 141.109 105.648 142.021 105.648ZM144.061 94.392C143.629 94.392 143.165 94.28 142.669 94.056C142.189 93.816 141.717 93.584 141.253 93.36C140.805 93.136 140.413 93.024 140.077 93.024C139.805 93.024 139.533 93.128 139.261 93.336C139.005 93.544 138.797 93.84 138.637 94.224L137.485 93.288C137.677 92.488 138.013 91.88 138.493 91.464C138.989 91.032 139.581 90.816 140.269 90.816C140.701 90.816 141.165 90.936 141.661 91.176C142.157 91.4 142.629 91.624 143.077 91.848C143.541 92.072 143.933 92.184 144.253 92.184C144.557 92.184 144.837 92.08 145.093 91.872C145.349 91.664 145.549 91.36 145.693 90.96L146.845 91.896C146.653 92.712 146.309 93.336 145.813 93.768C145.333 94.184 144.749 94.392 144.061 94.392ZM156.516 108.216C155.204 108.216 154.068 107.976 153.108 107.496C152.164 107 151.436 106.296 150.924 105.384C150.412 104.472 150.156 103.384 150.156 102.12C150.156 100.856 150.42 99.744 150.948 98.784C151.476 97.808 152.188 97.048 153.084 96.504C153.996 95.96 155.028 95.688 156.18 95.688C158.052 95.688 159.428 96.328 160.308 97.608C161.204 98.872 161.516 100.624 161.244 102.864H153.132C153.196 103.712 153.54 104.392 154.164 104.904C154.788 105.416 155.644 105.672 156.732 105.672C157.244 105.672 157.756 105.56 158.268 105.336C158.796 105.112 159.244 104.768 159.612 104.304L161.316 106.032C160.772 106.72 160.108 107.256 159.324 107.64C158.556 108.024 157.62 108.216 156.516 108.216ZM156.228 97.896C155.412 97.896 154.74 98.152 154.212 98.664C153.684 99.176 153.348 99.864 153.204 100.728H158.724C158.756 99.736 158.54 99.016 158.076 98.568C157.612 98.12 156.996 97.896 156.228 97.896ZM168.011 108.216C166.347 108.216 165.075 107.904 164.195 107.28C163.315 106.64 162.803 105.752 162.659 104.616L165.131 104.016C165.227 104.624 165.507 105.096 165.971 105.432C166.435 105.752 167.099 105.912 167.963 105.912C168.667 105.912 169.195 105.8 169.547 105.576C169.915 105.352 170.099 105.048 170.099 104.664C170.099 104.28 169.899 103.984 169.499 103.776C169.115 103.568 168.515 103.384 167.699 103.224C166.787 103.048 166.003 102.824 165.347 102.552C164.707 102.28 164.211 101.912 163.859 101.448C163.523 100.968 163.355 100.344 163.355 99.576C163.355 98.84 163.563 98.184 163.979 97.608C164.395 97.016 164.963 96.552 165.683 96.216C166.419 95.864 167.259 95.688 168.203 95.688C169.467 95.688 170.499 95.984 171.299 96.576C172.115 97.168 172.603 97.928 172.763 98.856L170.339 99.504C170.227 99.04 169.987 98.68 169.619 98.424C169.251 98.152 168.755 98.016 168.131 98.016C167.507 98.016 167.027 98.144 166.691 98.4C166.371 98.656 166.211 98.976 166.211 99.36C166.211 99.744 166.395 100.048 166.763 100.272C167.147 100.48 167.795 100.68 168.707 100.872C169.555 101.048 170.291 101.272 170.915 101.544C171.555 101.8 172.059 102.16 172.427 102.624C172.795 103.072 172.979 103.68 172.979 104.448C172.979 105.2 172.763 105.864 172.331 106.44C171.915 107 171.331 107.44 170.579 107.76C169.827 108.064 168.971 108.216 168.011 108.216Z" fill="#334B35"/>
<path d="M126.161 151.174C128.836 151.174 131.402 150.111 133.294 148.219C135.185 146.328 136.248 143.762 136.248 141.087C136.248 138.412 135.185 135.846 133.294 133.954C131.402 132.063 128.836 131 126.161 131C123.486 131 120.92 132.063 119.029 133.954C117.137 135.846 116.074 138.412 116.074 141.087C116.074 143.762 117.137 146.328 119.029 148.219C120.92 150.111 123.486 151.174 126.161 151.174ZM120.423 154.567C120.176 153.581 119.601 152.708 118.793 152.092C117.985 151.475 116.992 151.151 115.976 151.174C111.475 151.178 103.499 151.667 98.1419 162.381C91.4174 175.831 91.4174 184.797 93.6589 189.28C95.869 193.704 98.1509 196.004 100.383 197.188V216.178C100.383 217.367 100.856 218.507 101.697 219.348C102.537 220.189 103.678 220.661 104.867 220.661C106.055 220.661 107.196 220.189 108.037 219.348C108.877 218.507 109.35 217.367 109.35 216.178V198.134C109.359 186.294 111.107 172.751 114.586 168.187L115.931 173.567C116.455 175.66 117.948 177.377 119.956 178.175L130.097 182.237C131.201 182.678 132.435 182.664 133.528 182.195C134.621 181.727 135.483 180.844 135.925 179.74C136.367 178.636 136.352 177.402 135.884 176.309C135.415 175.216 134.532 174.353 133.428 173.912L124.35 170.28L120.423 154.567Z" fill="#334B35"/>
<path d="M129.523 193.261C129.523 192.682 129.734 192.351 130.079 192.077C130.569 191.721 131.159 191.53 131.765 191.53C132.37 191.53 132.96 191.721 133.45 192.077C133.796 192.346 134.006 192.682 134.006 193.256V217.299C134.006 218.191 134.361 219.046 134.991 219.676C135.622 220.307 136.477 220.661 137.369 220.661C138.26 220.661 139.116 220.307 139.746 219.676C140.377 219.046 140.731 218.191 140.731 217.299V193.256C140.731 190.432 139.422 188.217 137.606 186.792C135.932 185.501 133.877 184.801 131.763 184.801C129.648 184.801 127.593 185.501 125.919 186.792C124.935 187.555 124.142 188.536 123.6 189.658C123.059 190.779 122.785 192.011 122.799 193.256C122.799 194.148 123.153 195.003 123.784 195.634C124.414 196.264 125.269 196.619 126.161 196.619C127.053 196.619 127.908 196.264 128.539 195.634C129.169 195.003 129.523 194.152 129.523 193.261ZM69.4459 141.661C69.8877 140.886 70.619 140.319 71.479 140.083C72.3391 139.848 73.2575 139.964 74.0321 140.406L88.9517 148.932C89.5652 149.283 90.0693 149.797 90.4076 150.417C90.7459 151.037 90.9051 151.739 90.8675 152.445C90.8298 153.15 90.5967 153.831 90.1943 154.412C89.7919 154.993 89.2359 155.45 88.5886 155.733L85.4773 157.091L91.8926 160.543C92.6409 160.985 93.1892 161.699 93.4228 162.536C93.6564 163.372 93.557 164.267 93.1454 165.032C92.7339 165.797 92.0421 166.373 91.2152 166.64C90.3883 166.906 89.4904 166.842 88.7096 166.461L77.0133 160.18C76.3831 159.842 75.8609 159.333 75.5062 158.712C75.1516 158.091 74.9789 157.383 75.0079 156.668C75.0369 155.954 75.2664 155.262 75.6702 154.671C76.074 154.081 76.6358 153.616 77.2913 153.33L80.5773 151.896L70.6967 146.251C69.9221 145.81 69.3547 145.078 69.1193 144.218C68.8839 143.358 68.9998 142.44 69.4414 141.665M73.1803 168.084C72.3147 167.868 71.3986 168.004 70.6336 168.463C69.8685 168.922 69.3171 169.666 69.1007 170.532C68.8843 171.397 69.0207 172.313 69.4797 173.078C69.9387 173.843 70.6829 174.395 71.5485 174.611L75.8881 175.696L74.4042 177.92C74.0655 178.427 73.8538 179.009 73.7868 179.616C73.7198 180.222 73.7995 180.836 74.0192 181.406C74.2389 181.975 74.5921 182.483 75.0492 182.888C75.5063 183.292 76.0538 183.581 76.6457 183.73L84.9976 185.819C85.8632 186.035 86.7793 185.899 87.5444 185.44C88.3094 184.981 88.8608 184.237 89.0772 183.371C89.2936 182.506 89.1573 181.589 88.6982 180.824C88.2392 180.059 87.495 179.508 86.6295 179.292L82.2899 178.211L83.7738 175.983C84.1124 175.475 84.3241 174.894 84.3911 174.287C84.4581 173.68 84.3784 173.067 84.1587 172.497C83.9391 171.928 83.5858 171.419 83.1288 171.015C82.6717 170.61 82.1241 170.322 81.5322 170.173L73.1803 168.084Z" fill="#334B35"/>
</svg>
