<svg width="210" height="232" viewBox="0 0 210 232" fill="none" xmlns="http://www.w3.org/2000/svg">
<rect opacity="0.85" x="0.0204468" width="209.01" height="231.95" rx="15" fill="#D9D9D9"/>
<path d="M58.4473 48V30.96H63.5113C66.8233 30.96 69.3273 31.672 71.0233 33.096C72.7193 34.52 73.5673 36.624 73.5673 39.408C73.5673 41.136 73.1913 42.648 72.4393 43.944C71.6873 45.224 70.6233 46.224 69.2473 46.944C67.8713 47.648 66.2553 48 64.3993 48H58.4473ZM61.5673 45.24H64.2793C66.2793 45.24 67.7993 44.76 68.8393 43.8C69.8793 42.824 70.3993 41.4 70.3993 39.528C70.3993 37.576 69.8633 36.12 68.7913 35.16C67.7353 34.2 66.1113 33.72 63.9193 33.72H61.5673V45.24ZM81.8964 35.688C83.7044 35.688 85.1204 36.232 86.1444 37.32C87.1844 38.392 87.7044 39.848 87.7044 41.688C87.7044 42.936 87.4404 44.056 86.9124 45.048C86.4004 46.024 85.6724 46.8 84.7284 47.376C83.7844 47.936 82.6884 48.216 81.4404 48.216C79.6324 48.216 78.2084 47.68 77.1684 46.608C76.1444 45.536 75.6324 44.072 75.6324 42.216C75.6324 40.968 75.8884 39.856 76.4004 38.88C76.9284 37.888 77.6564 37.112 78.5844 36.552C79.5284 35.976 80.6324 35.688 81.8964 35.688ZM81.5364 45.648C82.4804 45.648 83.2404 45.288 83.8164 44.568C84.3924 43.848 84.6804 42.888 84.6804 41.688C84.6804 40.6 84.4244 39.76 83.9124 39.168C83.4164 38.576 82.7284 38.28 81.8484 38.28C80.8724 38.28 80.0964 38.64 79.5204 39.36C78.9444 40.08 78.6564 41.032 78.6564 42.216C78.6564 43.304 78.9044 44.152 79.4004 44.76C79.9124 45.352 80.6244 45.648 81.5364 45.648ZM96.0315 48.216C94.7195 48.216 93.5835 47.976 92.6235 47.496C91.6795 47 90.9515 46.296 90.4395 45.384C89.9275 44.472 89.6715 43.384 89.6715 42.12C89.6715 40.856 89.9355 39.744 90.4635 38.784C90.9915 37.808 91.7035 37.048 92.5995 36.504C93.5115 35.96 94.5435 35.688 95.6955 35.688C97.5675 35.688 98.9435 36.328 99.8235 37.608C100.72 38.872 101.032 40.624 100.76 42.864H92.6475C92.7115 43.712 93.0555 44.392 93.6795 44.904C94.3035 45.416 95.1595 45.672 96.2475 45.672C96.7595 45.672 97.2715 45.56 97.7835 45.336C98.3115 45.112 98.7595 44.768 99.1275 44.304L100.832 46.032C100.288 46.72 99.6235 47.256 98.8395 47.64C98.0715 48.024 97.1355 48.216 96.0315 48.216ZM95.7435 37.896C94.9275 37.896 94.2555 38.152 93.7275 38.664C93.1995 39.176 92.8635 39.864 92.7195 40.728H98.2395C98.2715 39.736 98.0555 39.016 97.5915 38.568C97.1275 38.12 96.5115 37.896 95.7435 37.896ZM103.279 48V35.88H106.207L106.063 38.928C106.527 37.888 107.159 37.088 107.959 36.528C108.759 35.968 109.671 35.688 110.695 35.688C112.055 35.688 113.079 36.16 113.767 37.104C114.471 38.032 114.815 39.368 114.799 41.112L114.751 48H111.823L111.871 41.352C111.887 40.408 111.735 39.688 111.415 39.192C111.111 38.68 110.615 38.424 109.927 38.424C109.399 38.424 108.911 38.576 108.463 38.88C108.015 39.184 107.623 39.704 107.287 40.44C106.951 41.16 106.687 42.144 106.495 43.392C106.303 44.624 106.199 46.16 106.183 48H103.279ZM123.14 48.216C121.3 48.216 119.844 47.688 118.772 46.632C117.7 45.56 117.164 44.072 117.164 42.168C117.164 40.888 117.428 39.76 117.956 38.784C118.484 37.808 119.22 37.048 120.164 36.504C121.108 35.96 122.196 35.688 123.428 35.688C124.452 35.688 125.348 35.888 126.116 36.288C126.884 36.688 127.508 37.312 127.988 38.16L125.9 39.744C125.596 39.232 125.244 38.864 124.844 38.64C124.46 38.416 123.988 38.304 123.428 38.304C122.484 38.304 121.708 38.656 121.1 39.36C120.508 40.064 120.212 40.992 120.212 42.144C120.212 43.264 120.476 44.128 121.004 44.736C121.548 45.328 122.324 45.624 123.332 45.624C123.86 45.624 124.348 45.504 124.796 45.264C125.26 45.024 125.644 44.648 125.948 44.136L127.988 45.768C127.444 46.648 126.756 47.28 125.924 47.664C125.092 48.032 124.164 48.216 123.14 48.216ZM122.396 53.352C121.9 53.352 121.396 53.296 120.884 53.184C120.372 53.088 119.948 52.96 119.612 52.8L120.26 51.288C120.932 51.576 121.636 51.72 122.372 51.72C122.692 51.72 122.948 51.656 123.14 51.528C123.332 51.416 123.428 51.248 123.428 51.024C123.428 50.848 123.348 50.704 123.188 50.592C123.044 50.48 122.772 50.424 122.372 50.424H121.052L122.444 47.568H124.388L123.764 48.984C125.156 49.24 125.852 49.928 125.852 51.048C125.852 51.752 125.54 52.312 124.916 52.728C124.308 53.144 123.468 53.352 122.396 53.352ZM140.435 35.928V48H137.459L137.555 45.888C137.123 46.624 136.555 47.2 135.851 47.616C135.163 48.016 134.371 48.216 133.475 48.216C132.419 48.216 131.523 47.976 130.787 47.496C130.051 47 129.491 46.32 129.107 45.456C128.723 44.592 128.531 43.6 128.531 42.48C128.531 41.136 128.795 39.96 129.323 38.952C129.851 37.928 130.571 37.128 131.483 36.552C132.411 35.976 133.451 35.688 134.603 35.688C135.371 35.688 136.051 35.856 136.643 36.192C137.235 36.512 137.691 36.944 138.011 37.488L138.299 35.928H140.435ZM134.819 38.28C133.827 38.28 133.035 38.656 132.443 39.408C131.851 40.16 131.555 41.144 131.555 42.36C131.555 43.4 131.779 44.208 132.227 44.784C132.675 45.36 133.291 45.648 134.075 45.648C134.715 45.648 135.291 45.464 135.803 45.096C136.331 44.728 136.747 44.216 137.051 43.56C137.355 42.904 137.507 42.152 137.507 41.304C137.507 40.36 137.267 39.624 136.787 39.096C136.307 38.552 135.651 38.28 134.819 38.28ZM147.792 48.216C146.128 48.216 144.856 47.904 143.976 47.28C143.096 46.64 142.584 45.752 142.44 44.616L144.912 44.016C145.008 44.624 145.288 45.096 145.752 45.432C146.216 45.752 146.88 45.912 147.744 45.912C148.448 45.912 148.976 45.8 149.328 45.576C149.696 45.352 149.88 45.048 149.88 44.664C149.88 44.28 149.68 43.984 149.28 43.776C148.896 43.568 148.296 43.384 147.48 43.224C146.568 43.048 145.784 42.824 145.128 42.552C144.488 42.28 143.992 41.912 143.64 41.448C143.304 40.968 143.136 40.344 143.136 39.576C143.136 38.84 143.344 38.184 143.76 37.608C144.176 37.016 144.744 36.552 145.464 36.216C146.2 35.864 147.04 35.688 147.984 35.688C149.248 35.688 150.28 35.984 151.08 36.576C151.896 37.168 152.384 37.928 152.544 38.856L150.12 39.504C150.008 39.04 149.768 38.68 149.4 38.424C149.032 38.152 148.536 38.016 147.912 38.016C147.288 38.016 146.808 38.144 146.472 38.4C146.152 38.656 145.992 38.976 145.992 39.36C145.992 39.744 146.176 40.048 146.544 40.272C146.928 40.48 147.576 40.68 148.488 40.872C149.336 41.048 150.072 41.272 150.696 41.544C151.336 41.8 151.84 42.16 152.208 42.624C152.576 43.072 152.76 43.68 152.76 44.448C152.76 45.2 152.544 45.864 152.112 46.44C151.696 47 151.112 47.44 150.36 47.76C149.608 48.064 148.752 48.216 147.792 48.216ZM35.0967 60.96H38.0967V78H35.3607L26.8887 66.12V78H23.8887V60.96H26.6247L35.0967 72.84V60.96ZM47.1995 78.216C45.8875 78.216 44.7515 77.976 43.7915 77.496C42.8475 77 42.1195 76.296 41.6075 75.384C41.0955 74.472 40.8395 73.384 40.8395 72.12C40.8395 70.856 41.1035 69.744 41.6315 68.784C42.1595 67.808 42.8715 67.048 43.7675 66.504C44.6795 65.96 45.7115 65.688 46.8635 65.688C48.7355 65.688 50.1115 66.328 50.9915 67.608C51.8875 68.872 52.1995 70.624 51.9275 72.864H43.8155C43.8795 73.712 44.2235 74.392 44.8475 74.904C45.4715 75.416 46.3275 75.672 47.4155 75.672C47.9275 75.672 48.4395 75.56 48.9515 75.336C49.4795 75.112 49.9275 74.768 50.2955 74.304L51.9995 76.032C51.4555 76.72 50.7915 77.256 50.0075 77.64C49.2395 78.024 48.3035 78.216 47.1995 78.216ZM46.9115 67.896C46.0955 67.896 45.4235 68.152 44.8955 68.664C44.3675 69.176 44.0315 69.864 43.8875 70.728H49.4075C49.4395 69.736 49.2235 69.016 48.7595 68.568C48.2955 68.12 47.6795 67.896 46.9115 67.896ZM58.3107 78.216C56.9667 78.216 55.9507 77.76 55.2627 76.848C54.5907 75.936 54.2627 74.672 54.2787 73.056L54.3267 65.88H57.2547L57.2067 72.792C57.1907 73.624 57.3347 74.28 57.6387 74.76C57.9427 75.24 58.4227 75.48 59.0787 75.48C59.5907 75.48 60.0627 75.328 60.4947 75.024C60.9427 74.72 61.3267 74.208 61.6467 73.488C61.9667 72.752 62.2147 71.768 62.3907 70.536C62.5827 69.288 62.6787 67.736 62.6787 65.88H65.5107V78H62.5587L62.7267 75.24C62.2467 76.216 61.6227 76.96 60.8547 77.472C60.1027 77.968 59.2547 78.216 58.3107 78.216ZM76.4024 68.712C76.0824 68.6 75.6744 68.544 75.1784 68.544C74.3144 68.544 73.6184 68.864 73.0904 69.504C72.5624 70.128 72.1704 71.136 71.9144 72.528C71.6744 73.904 71.5544 75.728 71.5544 78H68.6504V70.176L68.6264 65.88H71.5544L71.4104 69.264C71.8264 67.968 72.4024 67.048 73.1384 66.504C73.8904 65.96 74.6904 65.688 75.5384 65.688C75.7944 65.688 76.0344 65.704 76.2584 65.736C76.4824 65.768 76.6904 65.816 76.8824 65.88L76.4024 68.712ZM83.5488 65.688C85.3568 65.688 86.7728 66.232 87.7968 67.32C88.8368 68.392 89.3568 69.848 89.3568 71.688C89.3568 72.936 89.0928 74.056 88.5648 75.048C88.0528 76.024 87.3248 76.8 86.3808 77.376C85.4368 77.936 84.3408 78.216 83.0928 78.216C81.2848 78.216 79.8608 77.68 78.8208 76.608C77.7968 75.536 77.2848 74.072 77.2848 72.216C77.2848 70.968 77.5408 69.856 78.0528 68.88C78.5808 67.888 79.3088 67.112 80.2368 66.552C81.1808 65.976 82.2848 65.688 83.5488 65.688ZM83.1888 75.648C84.1328 75.648 84.8928 75.288 85.4688 74.568C86.0448 73.848 86.3328 72.888 86.3328 71.688C86.3328 70.6 86.0768 69.76 85.5648 69.168C85.0688 68.576 84.3808 68.28 83.5008 68.28C82.5248 68.28 81.7488 68.64 81.1728 69.36C80.5968 70.08 80.3088 71.032 80.3088 72.216C80.3088 73.304 80.5568 74.152 81.0528 74.76C81.5648 75.352 82.2768 75.648 83.1888 75.648ZM95.4038 78.216C94.2518 78.216 93.3798 77.904 92.7878 77.28C92.1958 76.656 91.8998 75.768 91.8998 74.616V60.24H94.8278V74.376C94.8278 75.24 95.2278 75.672 96.0278 75.672C96.4278 75.672 96.7798 75.576 97.0838 75.384L97.8038 77.52C97.5478 77.712 97.2038 77.872 96.7718 78C96.3398 78.144 95.8838 78.216 95.4038 78.216ZM104.478 65.688C106.286 65.688 107.702 66.232 108.726 67.32C109.766 68.392 110.286 69.848 110.286 71.688C110.286 72.936 110.022 74.056 109.494 75.048C108.982 76.024 108.254 76.8 107.31 77.376C106.366 77.936 105.27 78.216 104.022 78.216C102.214 78.216 100.79 77.68 99.7505 76.608C98.7265 75.536 98.2145 74.072 98.2145 72.216C98.2145 70.968 98.4705 69.856 98.9825 68.88C99.5105 67.888 100.238 67.112 101.166 66.552C102.11 65.976 103.214 65.688 104.478 65.688ZM104.118 75.648C105.062 75.648 105.822 75.288 106.398 74.568C106.974 73.848 107.262 72.888 107.262 71.688C107.262 70.6 107.006 69.76 106.494 69.168C105.998 68.576 105.31 68.28 104.43 68.28C103.454 68.28 102.678 68.64 102.102 69.36C101.526 70.08 101.238 71.032 101.238 72.216C101.238 73.304 101.486 74.152 101.982 74.76C102.494 75.352 103.206 75.648 104.118 75.648ZM102.918 64.248L105.774 60L108.798 60.768L105.534 64.248H102.918ZM117.198 83.04C116.494 83.04 115.734 82.968 114.918 82.824C114.118 82.68 113.454 82.44 112.926 82.104L113.646 79.56C114.174 79.832 114.742 80.048 115.35 80.208C115.974 80.368 116.638 80.448 117.342 80.448C118.766 80.448 119.774 80.112 120.366 79.44C120.958 78.768 121.286 77.712 121.35 76.272L121.398 75.528C120.95 76.28 120.382 76.856 119.694 77.256C119.022 77.64 118.23 77.832 117.318 77.832C116.23 77.832 115.302 77.6 114.534 77.136C113.782 76.672 113.214 76.024 112.83 75.192C112.446 74.36 112.254 73.408 112.254 72.336C112.254 71.04 112.51 69.896 113.022 68.904C113.55 67.896 114.27 67.112 115.182 66.552C116.11 65.976 117.174 65.688 118.374 65.688C119.174 65.688 119.87 65.856 120.462 66.192C121.054 66.512 121.51 66.944 121.83 67.488L122.118 65.928H124.254V75.912C124.254 78.296 123.63 80.08 122.382 81.264C121.134 82.448 119.406 83.04 117.198 83.04ZM118.59 68.28C117.582 68.28 116.774 68.64 116.166 69.36C115.574 70.08 115.278 71.008 115.278 72.144C115.278 73.136 115.51 73.904 115.974 74.448C116.438 74.992 117.07 75.264 117.87 75.264C118.526 75.264 119.11 75.088 119.622 74.736C120.15 74.368 120.566 73.872 120.87 73.248C121.174 72.624 121.326 71.92 121.326 71.136C121.326 70.24 121.078 69.544 120.582 69.048C120.086 68.536 119.422 68.28 118.59 68.28ZM130.312 65.88V78H127.384V65.88H130.312ZM128.848 63.96C128.272 63.96 127.816 63.784 127.48 63.432C127.144 63.08 126.976 62.656 126.976 62.16C126.976 61.664 127.144 61.24 127.48 60.888C127.816 60.536 128.272 60.36 128.848 60.36C129.424 60.36 129.88 60.536 130.216 60.888C130.552 61.24 130.72 61.664 130.72 62.16C130.72 62.656 130.552 63.08 130.216 63.432C129.88 63.784 129.424 63.96 128.848 63.96ZM138.831 78.216C136.991 78.216 135.535 77.688 134.463 76.632C133.391 75.56 132.855 74.072 132.855 72.168C132.855 70.888 133.119 69.76 133.647 68.784C134.175 67.808 134.911 67.048 135.855 66.504C136.799 65.96 137.887 65.688 139.119 65.688C140.143 65.688 141.039 65.888 141.807 66.288C142.575 66.688 143.199 67.312 143.679 68.16L141.591 69.744C141.287 69.232 140.935 68.864 140.535 68.64C140.151 68.416 139.679 68.304 139.119 68.304C138.175 68.304 137.399 68.656 136.791 69.36C136.199 70.064 135.903 70.992 135.903 72.144C135.903 73.264 136.167 74.128 136.695 74.736C137.239 75.328 138.015 75.624 139.023 75.624C139.551 75.624 140.039 75.504 140.487 75.264C140.951 75.024 141.335 74.648 141.639 74.136L143.679 75.768C143.135 76.648 142.447 77.28 141.615 77.664C140.783 78.032 139.855 78.216 138.831 78.216ZM156.126 65.928V78H153.15L153.246 75.888C152.814 76.624 152.246 77.2 151.542 77.616C150.854 78.016 150.062 78.216 149.166 78.216C148.11 78.216 147.214 77.976 146.478 77.496C145.742 77 145.182 76.32 144.798 75.456C144.414 74.592 144.222 73.6 144.222 72.48C144.222 71.136 144.486 69.96 145.014 68.952C145.542 67.928 146.262 67.128 147.174 66.552C148.102 65.976 149.142 65.688 150.294 65.688C151.062 65.688 151.742 65.856 152.334 66.192C152.926 66.512 153.382 66.944 153.702 67.488L153.99 65.928H156.126ZM150.51 68.28C149.518 68.28 148.726 68.656 148.134 69.408C147.542 70.16 147.246 71.144 147.246 72.36C147.246 73.4 147.47 74.208 147.918 74.784C148.366 75.36 148.982 75.648 149.766 75.648C150.406 75.648 150.982 75.464 151.494 75.096C152.022 74.728 152.438 74.216 152.742 73.56C153.046 72.904 153.198 72.152 153.198 71.304C153.198 70.36 152.958 69.624 152.478 69.096C151.998 68.552 151.342 68.28 150.51 68.28ZM163.484 78.216C161.82 78.216 160.548 77.904 159.668 77.28C158.788 76.64 158.276 75.752 158.132 74.616L160.604 74.016C160.7 74.624 160.98 75.096 161.444 75.432C161.908 75.752 162.572 75.912 163.436 75.912C164.14 75.912 164.668 75.8 165.02 75.576C165.388 75.352 165.572 75.048 165.572 74.664C165.572 74.28 165.372 73.984 164.972 73.776C164.588 73.568 163.988 73.384 163.172 73.224C162.26 73.048 161.476 72.824 160.82 72.552C160.18 72.28 159.684 71.912 159.332 71.448C158.996 70.968 158.828 70.344 158.828 69.576C158.828 68.84 159.036 68.184 159.452 67.608C159.868 67.016 160.436 66.552 161.156 66.216C161.892 65.864 162.732 65.688 163.676 65.688C164.94 65.688 165.972 65.984 166.772 66.576C167.588 67.168 168.076 67.928 168.236 68.856L165.812 69.504C165.7 69.04 165.46 68.68 165.092 68.424C164.724 68.152 164.228 68.016 163.604 68.016C162.98 68.016 162.5 68.144 162.164 68.4C161.844 68.656 161.684 68.976 161.684 69.36C161.684 69.744 161.868 70.048 162.236 70.272C162.62 70.48 163.268 70.68 164.18 70.872C165.028 71.048 165.764 71.272 166.388 71.544C167.028 71.8 167.532 72.16 167.9 72.624C168.268 73.072 168.452 73.68 168.452 74.448C168.452 75.2 168.236 75.864 167.804 76.44C167.388 77 166.804 77.44 166.052 77.76C165.3 78.064 164.444 78.216 163.484 78.216ZM182.176 78.216C180.864 78.216 179.728 77.976 178.768 77.496C177.824 77 177.096 76.296 176.584 75.384C176.072 74.472 175.816 73.384 175.816 72.12C175.816 70.856 176.08 69.744 176.608 68.784C177.136 67.808 177.848 67.048 178.744 66.504C179.656 65.96 180.688 65.688 181.84 65.688C183.712 65.688 185.088 66.328 185.968 67.608C186.864 68.872 187.176 70.624 186.904 72.864H178.792C178.856 73.712 179.2 74.392 179.824 74.904C180.448 75.416 181.304 75.672 182.392 75.672C182.904 75.672 183.416 75.56 183.928 75.336C184.456 75.112 184.904 74.768 185.272 74.304L186.976 76.032C186.432 76.72 185.768 77.256 184.984 77.64C184.216 78.024 183.28 78.216 182.176 78.216ZM181.888 67.896C181.072 67.896 180.4 68.152 179.872 68.664C179.344 69.176 179.008 69.864 178.864 70.728H184.384C184.416 69.736 184.2 69.016 183.736 68.568C183.272 68.12 182.656 67.896 181.888 67.896ZM49.4942 108V90.96H54.5582C57.8702 90.96 60.3742 91.672 62.0702 93.096C63.7662 94.52 64.6142 96.624 64.6142 99.408C64.6142 101.136 64.2382 102.648 63.4862 103.944C62.7342 105.224 61.6702 106.224 60.2942 106.944C58.9182 107.648 57.3022 108 55.4462 108H49.4942ZM52.6142 105.24H55.3262C57.3262 105.24 58.8462 104.76 59.8862 103.8C60.9262 102.824 61.4462 101.4 61.4462 99.528C61.4462 97.576 60.9102 96.12 59.8382 95.16C58.7822 94.2 57.1582 93.72 54.9662 93.72H52.6142V105.24ZM70.1833 95.88V108H67.2553V95.88H70.1833ZM68.7193 93.96C68.1433 93.96 67.6873 93.784 67.3513 93.432C67.0153 93.08 66.8473 92.656 66.8473 92.16C66.8473 91.664 67.0153 91.24 67.3513 90.888C67.6873 90.536 68.1433 90.36 68.7193 90.36C69.2953 90.36 69.7513 90.536 70.0873 90.888C70.4233 91.24 70.5913 91.664 70.5913 92.16C70.5913 92.656 70.4233 93.08 70.0873 93.432C69.7513 93.784 69.2953 93.96 68.7193 93.96ZM77.5502 108.216C75.8862 108.216 74.6142 107.904 73.7342 107.28C72.8542 106.64 72.3422 105.752 72.1982 104.616L74.6702 104.016C74.7662 104.624 75.0462 105.096 75.5102 105.432C75.9742 105.752 76.6382 105.912 77.5022 105.912C78.2062 105.912 78.7342 105.8 79.0862 105.576C79.4542 105.352 79.6382 105.048 79.6382 104.664C79.6382 104.28 79.4382 103.984 79.0382 103.776C78.6542 103.568 78.0542 103.384 77.2382 103.224C76.3262 103.048 75.5422 102.824 74.8862 102.552C74.2462 102.28 73.7502 101.912 73.3982 101.448C73.0622 100.968 72.8942 100.344 72.8942 99.576C72.8942 98.84 73.1022 98.184 73.5182 97.608C73.9342 97.016 74.5022 96.552 75.2222 96.216C75.9582 95.864 76.7982 95.688 77.7422 95.688C79.0062 95.688 80.0382 95.984 80.8382 96.576C81.6542 97.168 82.1422 97.928 82.3022 98.856L79.8782 99.504C79.7662 99.04 79.5262 98.68 79.1582 98.424C78.7902 98.152 78.2942 98.016 77.6702 98.016C77.0462 98.016 76.5662 98.144 76.2302 98.4C75.9102 98.656 75.7502 98.976 75.7502 99.36C75.7502 99.744 75.9342 100.048 76.3022 100.272C76.6862 100.48 77.3342 100.68 78.2462 100.872C79.0942 101.048 79.8302 101.272 80.4542 101.544C81.0942 101.8 81.5982 102.16 81.9662 102.624C82.3342 103.072 82.5182 103.68 82.5182 104.448C82.5182 105.2 82.3022 105.864 81.8702 106.44C81.4542 107 80.8702 107.44 80.1182 107.76C79.3662 108.064 78.5102 108.216 77.5502 108.216ZM89.5241 108.216C88.0681 108.216 86.9321 107.816 86.1161 107.016C85.3161 106.216 84.9241 105.168 84.9401 103.872L85.0361 98.328H82.9721V95.88H85.0841L85.1081 93.384H88.0361L87.9881 95.88H91.9481V98.328H87.9641L87.8921 103.56C87.8761 104.216 88.0361 104.736 88.3721 105.12C88.7241 105.488 89.2441 105.672 89.9321 105.672C90.3001 105.672 90.6441 105.624 90.9641 105.528C91.2841 105.432 91.6201 105.256 91.9721 105L92.8361 107.256C92.4681 107.576 91.9961 107.816 91.4201 107.976C90.8441 108.136 90.2121 108.216 89.5241 108.216ZM97.8615 108.216C96.5175 108.216 95.5015 107.76 94.8135 106.848C94.1415 105.936 93.8135 104.672 93.8295 103.056L93.8775 95.88H96.8055L96.7575 102.792C96.7415 103.624 96.8855 104.28 97.1895 104.76C97.4935 105.24 97.9735 105.48 98.6295 105.48C99.1415 105.48 99.6135 105.328 100.046 105.024C100.494 104.72 100.878 104.208 101.198 103.488C101.518 102.752 101.766 101.768 101.942 100.536C102.134 99.288 102.23 97.736 102.23 95.88H105.062V108H102.11L102.278 105.24C101.798 106.216 101.174 106.96 100.406 107.472C99.6535 107.968 98.8055 108.216 97.8615 108.216ZM98.1975 94.248L101.054 90L104.078 90.768L100.814 94.248H98.1975ZM115.953 98.712C115.633 98.6 115.225 98.544 114.729 98.544C113.865 98.544 113.169 98.864 112.641 99.504C112.113 100.128 111.721 101.136 111.465 102.528C111.225 103.904 111.105 105.728 111.105 108H108.201V100.176L108.177 95.88H111.105L110.961 99.264C111.377 97.968 111.953 97.048 112.689 96.504C113.441 95.96 114.241 95.688 115.089 95.688C115.345 95.688 115.585 95.704 115.809 95.736C116.033 95.768 116.241 95.816 116.433 95.88L115.953 98.712ZM117.974 108V90.24H120.902V95.88L120.806 98.088C121.238 97.32 121.798 96.728 122.486 96.312C123.19 95.896 123.998 95.688 124.91 95.688C125.982 95.688 126.886 95.936 127.622 96.432C128.358 96.928 128.918 97.608 129.302 98.472C129.686 99.336 129.878 100.32 129.878 101.424C129.878 102.768 129.614 103.952 129.086 104.976C128.558 106 127.83 106.8 126.902 107.376C125.99 107.936 124.958 108.216 123.806 108.216C123.022 108.216 122.334 108.056 121.742 107.736C121.15 107.4 120.702 106.96 120.398 106.416L120.11 108H117.974ZM123.566 105.648C124.574 105.648 125.374 105.264 125.966 104.496C126.558 103.728 126.854 102.736 126.854 101.52C126.854 100.496 126.63 99.704 126.182 99.144C125.734 98.568 125.118 98.28 124.334 98.28C123.678 98.28 123.094 98.464 122.582 98.832C122.07 99.184 121.662 99.688 121.358 100.344C121.054 100.984 120.902 101.728 120.902 102.576C120.902 103.52 121.142 104.272 121.622 104.832C122.102 105.376 122.75 105.648 123.566 105.648ZM135.34 95.88V108H132.412V95.88H135.34ZM133.876 93.96C133.3 93.96 132.844 93.784 132.508 93.432C132.172 93.08 132.004 92.656 132.004 92.16C132.004 91.664 132.172 91.24 132.508 90.888C132.844 90.536 133.3 90.36 133.876 90.36C134.452 90.36 134.908 90.536 135.244 90.888C135.58 91.24 135.748 91.664 135.748 92.16C135.748 92.656 135.58 93.08 135.244 93.432C134.908 93.784 134.452 93.96 133.876 93.96ZM144.146 95.688C145.954 95.688 147.37 96.232 148.394 97.32C149.434 98.392 149.954 99.848 149.954 101.688C149.954 102.936 149.69 104.056 149.162 105.048C148.65 106.024 147.922 106.8 146.978 107.376C146.034 107.936 144.938 108.216 143.69 108.216C141.882 108.216 140.458 107.68 139.418 106.608C138.394 105.536 137.882 104.072 137.882 102.216C137.882 100.968 138.138 99.856 138.65 98.88C139.178 97.888 139.906 97.112 140.834 96.552C141.778 95.976 142.882 95.688 144.146 95.688ZM143.786 105.648C144.73 105.648 145.49 105.288 146.066 104.568C146.642 103.848 146.93 102.888 146.93 101.688C146.93 100.6 146.674 99.76 146.162 99.168C145.666 98.576 144.978 98.28 144.098 98.28C143.122 98.28 142.346 98.64 141.77 99.36C141.194 100.08 140.906 101.032 140.906 102.216C140.906 103.304 141.154 104.152 141.65 104.76C142.162 105.352 142.874 105.648 143.786 105.648ZM156.746 108.216C155.082 108.216 153.81 107.904 152.93 107.28C152.05 106.64 151.538 105.752 151.394 104.616L153.866 104.016C153.962 104.624 154.242 105.096 154.706 105.432C155.17 105.752 155.834 105.912 156.698 105.912C157.402 105.912 157.93 105.8 158.282 105.576C158.65 105.352 158.834 105.048 158.834 104.664C158.834 104.28 158.634 103.984 158.234 103.776C157.85 103.568 157.25 103.384 156.434 103.224C155.522 103.048 154.738 102.824 154.082 102.552C153.442 102.28 152.946 101.912 152.594 101.448C152.258 100.968 152.09 100.344 152.09 99.576C152.09 98.84 152.298 98.184 152.714 97.608C153.13 97.016 153.698 96.552 154.418 96.216C155.154 95.864 155.994 95.688 156.938 95.688C158.202 95.688 159.234 95.984 160.034 96.576C160.85 97.168 161.338 97.928 161.498 98.856L159.074 99.504C158.962 99.04 158.722 98.68 158.354 98.424C157.986 98.152 157.49 98.016 156.866 98.016C156.242 98.016 155.762 98.144 155.426 98.4C155.106 98.656 154.946 98.976 154.946 99.36C154.946 99.744 155.13 100.048 155.498 100.272C155.882 100.48 156.53 100.68 157.442 100.872C158.29 101.048 159.026 101.272 159.65 101.544C160.29 101.8 160.794 102.16 161.162 102.624C161.53 103.072 161.714 103.68 161.714 104.448C161.714 105.2 161.498 105.864 161.066 106.44C160.65 107 160.066 107.44 159.314 107.76C158.562 108.064 157.706 108.216 156.746 108.216Z" fill="#334B35"/>
<path d="M125.838 122.556L127.752 128.446C128.346 130.238 129.351 131.866 130.688 133.2C132.024 134.534 133.654 135.537 135.447 136.129L141.338 138.043L141.453 138.075C141.907 138.235 142.301 138.532 142.579 138.925C142.858 139.318 143.007 139.788 143.007 140.27C143.007 140.751 142.858 141.221 142.579 141.614C142.301 142.007 141.907 142.304 141.453 142.464L135.562 144.378C133.769 144.969 132.139 145.972 130.803 147.306C129.467 148.64 128.462 150.268 127.867 152.06L125.953 157.945C125.793 158.399 125.496 158.793 125.103 159.071C124.71 159.349 124.24 159.499 123.759 159.499C123.277 159.499 122.807 159.349 122.414 159.071C122.021 158.793 121.724 158.399 121.564 157.945L119.644 152.06C119.055 150.264 118.053 148.631 116.718 147.293C115.383 145.951 113.752 144.941 111.955 144.345L106.064 142.431C105.61 142.271 105.216 141.974 104.938 141.581C104.66 141.188 104.51 140.718 104.51 140.237C104.51 139.755 104.66 139.285 104.938 138.892C105.216 138.499 105.61 138.202 106.064 138.043L111.955 136.129C113.726 135.521 115.332 134.511 116.646 133.178C117.96 131.845 118.947 130.225 119.529 128.446L121.443 122.562C121.602 122.105 121.899 121.71 122.292 121.43C122.686 121.15 123.157 121 123.64 121C124.124 121 124.595 121.15 124.988 121.43C125.382 121.71 125.679 122.1 125.838 122.556ZM152.817 166.177L148.604 164.814C147.325 164.386 146.164 163.667 145.211 162.714C144.258 161.76 143.54 160.598 143.114 159.32L141.739 155.118C141.625 154.793 141.413 154.512 141.132 154.313C140.852 154.114 140.516 154.007 140.172 154.007C139.827 154.007 139.492 154.114 139.211 154.313C138.93 154.512 138.718 154.793 138.604 155.118L137.24 159.32C136.822 160.59 136.116 161.747 135.177 162.7C134.238 163.653 133.092 164.376 131.828 164.814L127.62 166.177C127.297 166.294 127.019 166.507 126.822 166.787C126.625 167.068 126.519 167.402 126.519 167.745C126.519 168.087 126.625 168.422 126.822 168.702C127.019 168.983 127.297 169.196 127.62 169.312L131.828 170.681C133.11 171.109 134.275 171.83 135.23 172.786C136.184 173.743 136.903 174.909 137.328 176.192L138.692 180.393C138.806 180.718 139.018 181 139.299 181.199C139.58 181.398 139.915 181.505 140.26 181.505C140.604 181.505 140.94 181.398 141.22 181.199C141.501 181 141.713 180.718 141.827 180.393L143.197 176.192C143.623 174.913 144.342 173.75 145.296 172.797C146.249 171.843 147.412 171.125 148.692 170.698L152.899 169.334C153.222 169.218 153.5 169.005 153.697 168.724C153.894 168.444 154 168.109 154 167.767C154 167.424 153.894 167.09 153.697 166.809C153.5 166.529 153.222 166.316 152.899 166.199L152.817 166.177ZM140.271 186.998C138.807 186.996 137.378 186.556 136.167 185.733C134.957 184.853 134.077 183.693 133.527 182.318L132.097 177.908C131.952 177.443 131.686 177.026 131.327 176.698C130.985 176.356 130.572 176.093 130.117 175.928L125.926 174.553C124.441 174.003 123.231 173.118 122.351 171.908C121.471 170.698 121.031 169.263 121.031 167.772C121.031 166.727 121.251 165.683 121.691 164.748C120.811 164.528 119.985 164.143 119.215 163.593C117.907 162.634 116.91 161.31 116.35 159.787L114.37 153.782C113.875 152.517 113.38 151.802 112.775 151.197C112.036 150.484 111.152 149.938 110.184 149.597L104.348 147.672C103.397 147.356 102.517 146.857 101.757 146.204V215.881C103.909 217.79 106.526 219.097 109.345 219.671C112.164 220.245 115.084 220.066 117.811 219.151C120.538 218.236 122.975 216.618 124.877 214.461C126.779 212.303 128.078 209.682 128.643 206.862L128.846 205.834C133.15 204.921 136.965 202.454 139.563 198.905C142.161 195.356 143.359 190.974 142.927 186.597C142.07 186.875 141.172 187.01 140.271 186.998ZM96.2572 134.545C94.4489 133.232 92.3393 132.394 90.1225 132.11C87.9058 131.825 85.653 132.103 83.5716 132.916C81.4901 133.73 79.6467 135.054 78.2111 136.767C76.7755 138.48 75.7937 140.526 75.3561 142.717L74.6685 146.165L72.4354 146.611C69.0719 147.285 66.0457 149.103 63.8709 151.756C61.6961 154.408 60.5069 157.732 60.5052 161.162V162.251C60.5052 166.243 62.2103 169.84 64.933 172.353C61.6074 174.001 58.8777 176.643 57.1229 179.913C55.3682 183.183 54.6755 186.918 55.1412 190.6C55.6069 194.281 57.2079 197.726 59.7216 200.456C62.2354 203.186 65.5371 205.066 69.1682 205.834L69.3717 206.851C69.936 209.671 71.2345 212.293 73.136 214.451C75.0376 216.61 77.4749 218.228 80.2021 219.144C82.9292 220.059 85.8496 220.239 88.6685 219.665C91.4874 219.091 94.105 217.784 96.2572 215.876V134.545Z" fill="#334B35"/>
</svg>
