<?xml version="1.0" encoding="UTF-8"?>
<svg id="Camada_2" data-name="Camada 2" xmlns="http://www.w3.org/2000/svg" viewBox="0 0 329.67 332.92">
  <g id="Camada_1-2" data-name="Camada 1">
    <g>
      <path d="M298.76,67.87c-.11,11.63-1.46,28.72-7.6,48.28-12.45,39.7-36.23,62.95-40.94,67.44-8.69,8.28-23.53,20.4-45.33,29.66,2.32-9.63,6.39-23.01,13.84-37.88,9.65-19.27,21.25-33.53,20.25-34.31-.89-.69-10.45,10.22-11.89,11.85-42.31,47.88-58.18,118.71-39.02,180.01-5.23-7.82-11.89-19.27-17.2-34.02-2.66-7.39-4.63-14.62-6.05-21.6-1.42,6.98-3.39,14.21-6.05,21.6-5.32,14.76-11.98,26.2-17.2,34.02,19.17-61.3,3.29-132.13-39.02-180.01-1.44-1.63-11.01-12.54-11.89-11.85-1.01.78,10.59,15.04,20.25,34.31,7.45,14.86,11.51,28.25,13.85,37.88-21.81-9.26-36.64-21.38-45.34-29.66-4.71-4.49-28.48-27.74-40.93-67.44-6.13-19.56-7.49-36.65-7.6-48.28,31.51,6.9,52.62,20.46,64.14,29.26,46.45,35.51,59.25,87.29,63.94,106.24,3.82,15.44,5.26,28.69,5.85,38.02.6-9.2,2.04-22.3,5.8-37.58,4.73-19.2,17.52-71.12,63.98-106.68,11.51-8.81,32.61-22.37,64.14-29.26Z"/>
      <path d="M140.58,278.53c-5.12-7.05-13.22-16.58-25.17-25.49-12.16-9.07-23.83-14.15-32.13-17.03,6.24,4.11,14.27,10.3,22.17,19.23,7.88,8.9,13.04,17.59,16.36,24.27-15.79-1.86-59.05-9.14-93.58-44.93-14.26-14.78-22.93-30.17-28.24-42.1,10.4-1.54,47.03-5.67,84.49,16.59,39.27,23.33,52.85,59.86,56.09,69.46Z"/>
      <path d="M189.09,278.53c5.12-7.05,13.22-16.58,25.17-25.49,12.16-9.07,23.83-14.15,32.13-17.03-6.24,4.11-14.27,10.3-22.17,19.23-7.88,8.9-13.04,17.59-16.36,24.27,15.79-1.86,59.05-9.14,93.58-44.93,14.26-14.78,22.93-30.17,28.24-42.1-10.4-1.54-47.03-5.67-84.49,16.59-39.27,23.33-52.85,59.86-56.09,69.46Z"/>
      <circle cx="164.84" cy="42.67" r="42.67"/>
    </g>
  </g>
</svg>