<?xml version="1.0" encoding="UTF-8"?>
<svg id="Camada_2" data-name="Camada 2" xmlns="http://www.w3.org/2000/svg" viewBox="0 0 672.52 673.1">
  <defs>
    <style>
      .cls-1, .cls-2 {
        fill: #fff;
      }

      .cls-2 {
        font-family: CenturyGothic, 'Century Gothic';
        font-size: 69.93px;
        letter-spacing: .21em;
      }
    </style>
  </defs>
  <g id="Camada_1-2" data-name="Camada 1">
    <g>
      <path class="cls-1" d="M490.01,77.92c-.13,13.35-1.68,32.97-8.72,55.43-14.3,45.58-41.59,72.27-47,77.43-9.98,9.5-27.01,23.42-52.04,34.05,2.67-11.06,7.34-26.42,15.89-43.49,11.08-22.12,24.4-38.49,23.25-39.39-1.02-.79-12,11.73-13.65,13.6-48.57,54.97-66.8,136.29-44.79,206.67-6.01-8.98-13.65-22.12-19.75-39.06-3.05-8.48-5.31-16.78-6.95-24.8-1.64,8.02-3.89,16.32-6.95,24.8-6.11,16.94-13.75,30.08-19.75,39.06,22.01-70.38,3.78-151.7-44.79-206.67-1.66-1.87-12.64-14.4-13.65-13.6-1.16.9,12.16,17.27,23.24,39.39,8.55,17.07,13.22,32.43,15.9,43.49-25.04-10.63-42.07-24.55-52.05-34.05-5.4-5.15-32.7-31.85-46.99-77.43-7.04-22.46-8.6-42.08-8.72-55.43,36.17,7.92,60.41,23.48,73.63,33.6,53.32,40.77,68.03,100.21,73.41,121.97,4.39,17.73,6.04,32.94,6.71,43.65.69-10.57,2.34-25.6,6.66-43.15,5.43-22.04,20.12-81.66,73.46-122.47,13.21-10.11,37.44-25.68,73.63-33.6Z"/>
      <path class="cls-1" d="M308.41,319.77c-5.87-8.09-15.18-19.03-28.89-29.26-13.97-10.41-27.36-16.24-36.89-19.55,7.16,4.72,16.38,11.83,25.45,22.07,9.05,10.22,14.97,20.2,18.78,27.87-18.13-2.13-67.79-10.5-107.43-51.59-16.37-16.96-26.33-34.63-32.42-48.33,11.94-1.77,53.99-6.51,97,19.04,45.09,26.79,60.68,68.73,64.4,79.75Z"/>
      <path class="cls-1" d="M364.1,319.77c5.87-8.09,15.18-19.03,28.89-29.26,13.97-10.41,27.36-16.24,36.89-19.55-7.16,4.72-16.38,11.83-25.45,22.07-9.05,10.22-14.97,20.2-18.78,27.87,18.13-2.13,67.79-10.5,107.43-51.59,16.37-16.96,26.33-34.63,32.42-48.33-11.94-1.77-53.99-6.51-97,19.04-45.09,26.79-60.68,68.73-64.4,79.75Z"/>
      <circle class="cls-1" cx="336.25" cy="48.99" r="48.99"/>
    </g>
    <text class="cls-2" transform="translate(112.53 466.82)"><tspan x="0" y="0">INSTITUTO</tspan></text>
    <path class="cls-1" d="M123.15,646.45v23.08c0,1.97-1.6,3.57-3.57,3.57H19.65c-10.85,0-19.65-8.8-19.65-19.65v-138.06c0-10.85,8.8-19.65,19.65-19.65h97.68c1.97,0,3.57,1.6,3.57,3.57v23.08c0,1.97-1.6,3.57-3.57,3.57H34.47v42.72h70.87c1.97,0,3.57,1.6,3.57,3.57v20.83c0,1.97-1.6,3.57-3.57,3.57H34.47v46.21h85.1c1.97,0,3.57,1.6,3.57,3.57Z"/>
    <path class="cls-1" d="M143.63,650.33v-131.82c0-12.58,10.19-22.77,22.77-22.77h41.68c19.32,0,35.47,3.96,48.46,11.86,12.99,7.91,22.73,18.57,29.23,31.98,6.5,13.41,9.74,28.27,9.74,44.59,0,17.99-3.58,33.64-10.74,46.96-7.16,13.33-17.28,23.65-30.35,30.98-13.07,7.33-28.52,10.99-46.34,10.99h-41.68c-12.58,0-22.77-10.19-22.77-22.77ZM260.79,584.17c0-11.49-2.08-21.61-6.25-30.35-4.16-8.74-10.16-15.57-17.98-20.48-7.83-4.91-17.32-7.37-28.48-7.37h-29.98v116.91h29.98c11.49,0,21.11-2.58,28.85-7.74,7.75-5.16,13.65-12.16,17.74-20.98,4.08-8.83,6.12-18.82,6.12-29.98Z"/>
    <path class="cls-1" d="M460.87,667.33v-110.64l-44.19,83.78c-.94,1.78-2.79,2.89-4.8,2.89h-12.68c-2.02,0-3.87-1.12-4.8-2.91l-43.94-83.77v110.64c0,3.19-2.58,5.77-5.77,5.77h-13.72c-8.27,0-14.98-6.71-14.98-14.98v-147.4c0-8.27,6.71-14.98,14.98-14.98h18.73c2.15,0,4.13,1.2,5.12,3.11l50.59,97.56,51.09-97.58c1-1.9,2.96-3.09,5.11-3.09h18.5c8.27,0,14.98,6.71,14.98,14.98v147.4c0,8.27-6.71,14.98-14.98,14.98h-13.48c-3.19,0-5.77-2.58-5.77-5.77Z"/>
    <path class="cls-1" d="M573.78,495.74h17.38c10.57,0,20.01,6.59,23.66,16.51l57.49,156.4c.79,2.16-.8,4.45-3.1,4.45h-28.35c-1.42,0-2.69-.91-3.14-2.26l-13.98-41.95h-65.12l-14.06,41.96c-.45,1.35-1.71,2.26-3.14,2.26h-28.35c-2.3,0-3.9-2.29-3.1-4.45l63.8-172.9ZM615.66,604.65l-24.4-73.19-24.52,73.19h48.92Z"/>
  </g>
</svg>