<?xml version="1.0" encoding="UTF-8"?>
<svg id="Camada_2" data-name="Camada 2" xmlns="http://www.w3.org/2000/svg" viewBox="0 0 898.99 332.92">
  <defs>
    <style>
      .cls-1 {
        font-family: CenturyGothic, 'Century Gothic';
        font-size: 55.01px;
        letter-spacing: .21em;
      }
    </style>
  </defs>
  <g id="Camada_1-2" data-name="Camada 1">
    <g>
      <path d="M298.76,67.87c-.11,11.63-1.46,28.72-7.6,48.28-12.45,39.7-36.23,62.95-40.94,67.44-8.69,8.28-23.53,20.4-45.33,29.66,2.32-9.63,6.39-23.01,13.84-37.88,9.65-19.27,21.25-33.53,20.25-34.31-.89-.69-10.45,10.22-11.89,11.85-42.31,47.88-58.18,118.71-39.02,180.01-5.23-7.82-11.89-19.27-17.2-34.02-2.66-7.39-4.63-14.62-6.05-21.6-1.42,6.98-3.39,14.21-6.05,21.6-5.32,14.76-11.98,26.2-17.2,34.02,19.17-61.3,3.29-132.13-39.02-180.01-1.44-1.63-11.01-12.54-11.89-11.85-1.01.78,10.59,15.04,20.25,34.31,7.45,14.86,11.51,28.25,13.85,37.88-21.81-9.26-36.64-21.38-45.34-29.66-4.71-4.49-28.48-27.74-40.93-67.44-6.13-19.56-7.49-36.65-7.6-48.28,31.51,6.9,52.62,20.46,64.14,29.26,46.45,35.51,59.25,87.29,63.94,106.24,3.82,15.44,5.26,28.69,5.85,38.02.6-9.2,2.04-22.3,5.8-37.58,4.73-19.2,17.52-71.12,63.98-106.68,11.51-8.81,32.61-22.37,64.14-29.26Z"/>
      <path d="M140.58,278.53c-5.12-7.05-13.22-16.58-25.17-25.49-12.16-9.07-23.83-14.15-32.13-17.03,6.24,4.11,14.27,10.3,22.17,19.23,7.88,8.9,13.04,17.59,16.36,24.27-15.79-1.86-59.05-9.14-93.58-44.93-14.26-14.78-22.93-30.17-28.24-42.1,10.4-1.54,47.03-5.67,84.49,16.59,39.27,23.33,52.85,59.86,56.09,69.46Z"/>
      <path d="M189.09,278.53c5.12-7.05,13.22-16.58,25.17-25.49,12.16-9.07,23.83-14.15,32.13-17.03-6.24,4.11-14.27,10.3-22.17,19.23-7.88,8.9-13.04,17.59-16.36,24.27,15.79-1.86,59.05-9.14,93.58-44.93,14.26-14.78,22.93-30.17,28.24-42.1-10.4-1.54-47.03-5.67-84.49,16.59-39.27,23.33-52.85,59.86-56.09,69.46Z"/>
      <circle cx="164.84" cy="42.67" r="42.67"/>
    </g>
    <text class="cls-1" transform="translate(365.38 109.59)"><tspan x="0" y="0">INSTITUTO</tspan></text>
    <path d="M466.84,247.9v18.15c0,1.55-1.26,2.81-2.81,2.81h-78.6c-8.54,0-15.46-6.92-15.46-15.46v-108.6c0-8.54,6.92-15.46,15.46-15.46h76.83c1.55,0,2.81,1.26,2.81,2.81v18.15c0,1.55-1.26,2.81-2.81,2.81h-65.18v33.6h55.74c1.55,0,2.81,1.26,2.81,2.81v16.39c0,1.55-1.26,2.81-2.81,2.81h-55.74v36.35h66.94c1.55,0,2.81,1.26,2.81,2.81Z"/>
    <path d="M482.96,250.95v-103.69c0-9.89,8.02-17.91,17.91-17.91h32.79c15.19,0,27.9,3.11,38.12,9.33,10.22,6.22,17.88,14.61,22.99,25.15,5.11,10.54,7.66,22.24,7.66,35.07,0,14.15-2.82,26.46-8.45,36.94-5.63,10.48-13.59,18.6-23.87,24.37-10.28,5.77-22.43,8.65-36.45,8.65h-32.79c-9.89,0-17.91-8.02-17.91-17.91ZM575.11,198.91c0-9.04-1.64-17-4.91-23.87-3.28-6.88-7.99-12.25-14.15-16.11-6.16-3.86-13.63-5.8-22.4-5.8h-23.58v91.96h23.58c9.04,0,16.6-2.03,22.69-6.09,6.09-4.06,10.74-9.56,13.95-16.51,3.21-6.94,4.81-14.8,4.81-23.58Z"/>
    <path d="M732.5,264.33v-87.03l-34.76,65.91c-.74,1.4-2.19,2.28-3.77,2.28h-9.98c-1.59,0-3.04-.88-3.78-2.29l-34.56-65.9v87.03c0,2.51-2.03,4.54-4.54,4.54h-10.8c-6.51,0-11.78-5.28-11.78-11.78v-115.94c0-6.51,5.28-11.78,11.78-11.78h14.74c1.69,0,3.25.94,4.03,2.45l39.8,76.74,40.19-76.75c.78-1.5,2.33-2.43,4.02-2.43h14.55c6.51,0,11.78,5.28,11.78,11.78v115.94c0,6.51-5.28,11.78-11.78,11.78h-10.6c-2.51,0-4.54-2.03-4.54-4.54Z"/>
    <path d="M821.32,129.35h13.67c8.31,0,15.74,5.18,18.61,12.99l45.23,123.03c.62,1.7-.63,3.5-2.44,3.5h-22.3c-1.12,0-2.11-.72-2.47-1.78l-11-33h-51.22l-11.06,33c-.36,1.06-1.35,1.77-2.47,1.77h-22.3c-1.81,0-3.07-1.8-2.44-3.5l50.19-136.01ZM854.26,215.02l-19.19-57.57-19.29,57.57h38.48Z"/>
  </g>
</svg>