<svg width="210" height="232" viewBox="0 0 210 232" fill="none" xmlns="http://www.w3.org/2000/svg">
<rect opacity="0.85" width="209.01" height="231.95" rx="15" fill="#D9D9D9"/>
<path d="M28.5755 57.216C26.5755 57.216 25.0155 56.768 23.8955 55.872C22.7755 54.976 22.1355 53.664 21.9755 51.936L24.9035 51.504C25.1915 53.552 26.4635 54.576 28.7195 54.576C29.6955 54.576 30.4555 54.384 30.9995 54C31.5435 53.6 31.8155 53.048 31.8155 52.344C31.8155 51.704 31.5435 51.224 30.9995 50.904C30.4555 50.568 29.5835 50.256 28.3835 49.968C27.2635 49.696 26.3035 49.376 25.5035 49.008C24.7035 48.624 24.0875 48.112 23.6555 47.472C23.2395 46.832 23.0315 45.984 23.0315 44.928C23.0315 43.92 23.2875 43.024 23.7995 42.24C24.3275 41.456 25.0475 40.84 25.9595 40.392C26.8715 39.944 27.9275 39.72 29.1275 39.72C30.7115 39.72 32.0075 40.136 33.0155 40.968C34.0235 41.8 34.6155 42.944 34.7915 44.4L32.0555 44.856C31.7195 43.192 30.6955 42.36 28.9835 42.36C28.1515 42.36 27.4715 42.576 26.9435 43.008C26.4315 43.44 26.1755 44.008 26.1755 44.712C26.1755 45.416 26.4315 45.96 26.9435 46.344C27.4555 46.712 28.3275 47.04 29.5595 47.328C30.6635 47.584 31.6155 47.888 32.4155 48.24C33.2155 48.576 33.8315 49.048 34.2635 49.656C34.7115 50.264 34.9355 51.096 34.9355 52.152C34.9355 53.144 34.6635 54.024 34.1195 54.792C33.5915 55.544 32.8475 56.136 31.8875 56.568C30.9435 57 29.8395 57.216 28.5755 57.216ZM48.47 44.928V57H45.494L45.59 54.888C45.158 55.624 44.59 56.2 43.886 56.616C43.198 57.016 42.406 57.216 41.51 57.216C40.454 57.216 39.558 56.976 38.822 56.496C38.086 56 37.526 55.32 37.142 54.456C36.758 53.592 36.566 52.6 36.566 51.48C36.566 50.136 36.83 48.96 37.358 47.952C37.886 46.928 38.606 46.128 39.518 45.552C40.446 44.976 41.486 44.688 42.638 44.688C43.406 44.688 44.086 44.856 44.678 45.192C45.27 45.512 45.726 45.944 46.046 46.488L46.334 44.928H48.47ZM42.854 47.28C41.862 47.28 41.07 47.656 40.478 48.408C39.886 49.16 39.59 50.144 39.59 51.36C39.59 52.4 39.814 53.208 40.262 53.784C40.71 54.36 41.326 54.648 42.11 54.648C42.75 54.648 43.326 54.464 43.838 54.096C44.366 53.728 44.782 53.216 45.086 52.56C45.39 51.904 45.542 51.152 45.542 50.304C45.542 49.36 45.302 48.624 44.822 48.096C44.342 47.552 43.686 47.28 42.854 47.28ZM55.4435 57.216C54.0995 57.216 53.0835 56.76 52.3955 55.848C51.7235 54.936 51.3955 53.672 51.4115 52.056L51.4595 44.88H54.3875L54.3395 51.792C54.3235 52.624 54.4675 53.28 54.7715 53.76C55.0755 54.24 55.5555 54.48 56.2115 54.48C56.7235 54.48 57.1955 54.328 57.6275 54.024C58.0755 53.72 58.4595 53.208 58.7795 52.488C59.0995 51.752 59.3475 50.768 59.5235 49.536C59.7155 48.288 59.8115 46.736 59.8115 44.88H62.6435V57H59.6915L59.8595 54.24C59.3795 55.216 58.7555 55.96 57.9875 56.472C57.2355 56.968 56.3875 57.216 55.4435 57.216ZM55.7795 43.248L58.6355 39L61.6595 39.768L58.3955 43.248H55.7795ZM77.0872 39.24V57H74.1112L74.2072 54.888C73.7752 55.64 73.2152 56.216 72.5272 56.616C71.8392 57.016 71.0392 57.216 70.1272 57.216C69.0712 57.216 68.1752 56.976 67.4392 56.496C66.7032 56 66.1432 55.32 65.7592 54.456C65.3752 53.592 65.1832 52.6 65.1832 51.48C65.1832 50.136 65.4472 48.96 65.9752 47.952C66.5032 46.928 67.2232 46.128 68.1352 45.552C69.0632 44.976 70.1032 44.688 71.2552 44.688C71.8632 44.688 72.4152 44.792 72.9112 45C73.4232 45.208 73.8472 45.496 74.1832 45.864L74.1592 44.88V39.24H77.0872ZM71.4712 47.28C70.4792 47.28 69.6872 47.656 69.0952 48.408C68.5032 49.16 68.2072 50.144 68.2072 51.36C68.2072 52.4 68.4312 53.208 68.8792 53.784C69.3272 54.36 69.9432 54.648 70.7272 54.648C71.3672 54.648 71.9432 54.464 72.4552 54.096C72.9832 53.728 73.3992 53.216 73.7032 52.56C74.0072 51.904 74.1592 51.152 74.1592 50.304C74.1592 49.36 73.9192 48.624 73.4392 48.096C72.9592 47.552 72.3032 47.28 71.4712 47.28ZM85.9807 57.216C84.6687 57.216 83.5327 56.976 82.5727 56.496C81.6287 56 80.9007 55.296 80.3887 54.384C79.8767 53.472 79.6207 52.384 79.6207 51.12C79.6207 49.856 79.8847 48.744 80.4127 47.784C80.9407 46.808 81.6527 46.048 82.5487 45.504C83.4607 44.96 84.4927 44.688 85.6447 44.688C87.5167 44.688 88.8927 45.328 89.7727 46.608C90.6687 47.872 90.9807 49.624 90.7087 51.864H82.5967C82.6607 52.712 83.0047 53.392 83.6287 53.904C84.2527 54.416 85.1087 54.672 86.1967 54.672C86.7087 54.672 87.2207 54.56 87.7327 54.336C88.2607 54.112 88.7087 53.768 89.0767 53.304L90.7807 55.032C90.2367 55.72 89.5727 56.256 88.7887 56.64C88.0207 57.024 87.0847 57.216 85.9807 57.216ZM85.6927 46.896C84.8767 46.896 84.2047 47.152 83.6767 47.664C83.1487 48.176 82.8127 48.864 82.6687 49.728H88.1887C88.2207 48.736 88.0047 48.016 87.5407 47.568C87.0767 47.12 86.4607 46.896 85.6927 46.896ZM99.0639 57V44.88H101.992L101.848 47.856C102.344 46.752 102.984 45.952 103.768 45.456C104.568 44.944 105.424 44.688 106.336 44.688C107.216 44.688 107.992 44.928 108.664 45.408C109.336 45.888 109.816 46.64 110.104 47.664C110.616 46.656 111.288 45.912 112.12 45.432C112.968 44.936 113.84 44.688 114.736 44.688C116.08 44.688 117.096 45.16 117.784 46.104C118.488 47.032 118.832 48.368 118.816 50.112L118.768 57H115.84L115.888 50.208C115.888 49.328 115.728 48.648 115.408 48.168C115.088 47.672 114.592 47.424 113.92 47.424C113.456 47.424 113.008 47.576 112.576 47.88C112.16 48.168 111.784 48.672 111.448 49.392C111.128 50.112 110.872 51.096 110.68 52.344C110.488 53.576 110.384 55.128 110.368 57H107.464V50.208C107.464 49.328 107.312 48.648 107.008 48.168C106.704 47.672 106.216 47.424 105.544 47.424C105.08 47.424 104.632 47.576 104.2 47.88C103.784 48.168 103.408 48.672 103.072 49.392C102.752 50.112 102.488 51.096 102.28 52.344C102.088 53.576 101.984 55.128 101.968 57H99.0639ZM127.559 57.216C126.247 57.216 125.111 56.976 124.151 56.496C123.207 56 122.479 55.296 121.967 54.384C121.455 53.472 121.199 52.384 121.199 51.12C121.199 49.856 121.463 48.744 121.991 47.784C122.519 46.808 123.231 46.048 124.127 45.504C125.039 44.96 126.071 44.688 127.223 44.688C129.095 44.688 130.471 45.328 131.351 46.608C132.247 47.872 132.559 49.624 132.287 51.864H124.175C124.239 52.712 124.583 53.392 125.207 53.904C125.831 54.416 126.687 54.672 127.775 54.672C128.287 54.672 128.799 54.56 129.311 54.336C129.839 54.112 130.287 53.768 130.655 53.304L132.359 55.032C131.815 55.72 131.151 56.256 130.367 56.64C129.599 57.024 128.663 57.216 127.559 57.216ZM127.271 46.896C126.455 46.896 125.783 47.152 125.255 47.664C124.727 48.176 124.391 48.864 124.247 49.728H129.767C129.799 48.736 129.583 48.016 129.119 47.568C128.655 47.12 128.039 46.896 127.271 46.896ZM134.806 57V44.88H137.734L137.59 47.928C138.054 46.888 138.686 46.088 139.486 45.528C140.286 44.968 141.198 44.688 142.222 44.688C143.582 44.688 144.606 45.16 145.294 46.104C145.998 47.032 146.342 48.368 146.326 50.112L146.278 57H143.35L143.398 50.352C143.414 49.408 143.262 48.688 142.942 48.192C142.638 47.68 142.142 47.424 141.454 47.424C140.926 47.424 140.438 47.576 139.99 47.88C139.542 48.184 139.15 48.704 138.814 49.44C138.478 50.16 138.214 51.144 138.022 52.392C137.83 53.624 137.726 55.16 137.71 57H134.806ZM154.403 57.216C152.947 57.216 151.811 56.816 150.995 56.016C150.195 55.216 149.803 54.168 149.819 52.872L149.915 47.328H147.851V44.88H149.963L149.987 42.384H152.915L152.867 44.88H156.827V47.328H152.843L152.771 52.56C152.755 53.216 152.915 53.736 153.251 54.12C153.603 54.488 154.123 54.672 154.811 54.672C155.179 54.672 155.523 54.624 155.843 54.528C156.163 54.432 156.499 54.256 156.851 54L157.715 56.256C157.347 56.576 156.875 56.816 156.299 56.976C155.723 57.136 155.091 57.216 154.403 57.216ZM170.087 44.928V57H167.111L167.207 54.888C166.775 55.624 166.207 56.2 165.503 56.616C164.815 57.016 164.023 57.216 163.127 57.216C162.071 57.216 161.175 56.976 160.439 56.496C159.703 56 159.143 55.32 158.759 54.456C158.375 53.592 158.183 52.6 158.183 51.48C158.183 50.136 158.447 48.96 158.975 47.952C159.503 46.928 160.223 46.128 161.135 45.552C162.063 44.976 163.103 44.688 164.255 44.688C165.023 44.688 165.703 44.856 166.295 45.192C166.887 45.512 167.343 45.944 167.663 46.488L167.951 44.928H170.087ZM164.471 47.28C163.479 47.28 162.687 47.656 162.095 48.408C161.503 49.16 161.207 50.144 161.207 51.36C161.207 52.4 161.431 53.208 161.879 53.784C162.327 54.36 162.943 54.648 163.727 54.648C164.367 54.648 164.943 54.464 165.455 54.096C165.983 53.728 166.399 53.216 166.703 52.56C167.007 51.904 167.159 51.152 167.159 50.304C167.159 49.36 166.919 48.624 166.439 48.096C165.959 47.552 165.303 47.28 164.471 47.28ZM176.701 57.216C175.549 57.216 174.677 56.904 174.085 56.28C173.493 55.656 173.197 54.768 173.197 53.616V39.24H176.125V53.376C176.125 54.24 176.525 54.672 177.325 54.672C177.725 54.672 178.077 54.576 178.381 54.384L179.101 56.52C178.845 56.712 178.501 56.872 178.069 57C177.637 57.144 177.181 57.216 176.701 57.216ZM41.8128 87.216C40.5008 87.216 39.3648 86.976 38.4048 86.496C37.4608 86 36.7328 85.296 36.2208 84.384C35.7088 83.472 35.4528 82.384 35.4528 81.12C35.4528 79.856 35.7168 78.744 36.2448 77.784C36.7728 76.808 37.4848 76.048 38.3808 75.504C39.2928 74.96 40.3248 74.688 41.4768 74.688C43.3488 74.688 44.7248 75.328 45.6048 76.608C46.5008 77.872 46.8128 79.624 46.5408 81.864H38.4288C38.4928 82.712 38.8368 83.392 39.4608 83.904C40.0848 84.416 40.9408 84.672 42.0288 84.672C42.5408 84.672 43.0528 84.56 43.5648 84.336C44.0928 84.112 44.5408 83.768 44.9088 83.304L46.6128 85.032C46.0688 85.72 45.4048 86.256 44.6208 86.64C43.8528 87.024 42.9168 87.216 41.8128 87.216ZM41.5247 76.896C40.7088 76.896 40.0368 77.152 39.5088 77.664C38.9808 78.176 38.6448 78.864 38.5008 79.728H44.0208C44.0528 78.736 43.8368 78.016 43.3728 77.568C42.9088 77.12 42.2928 76.896 41.5247 76.896ZM54.8959 87V69.24H57.8239V74.88L57.7279 77.088C58.1599 76.32 58.7199 75.728 59.4079 75.312C60.1119 74.896 60.9199 74.688 61.8319 74.688C62.9039 74.688 63.8079 74.936 64.5439 75.432C65.2799 75.928 65.8399 76.608 66.2239 77.472C66.6079 78.336 66.7999 79.32 66.7999 80.424C66.7999 81.768 66.5359 82.952 66.0079 83.976C65.4799 85 64.7519 85.8 63.8239 86.376C62.9119 86.936 61.8799 87.216 60.7279 87.216C59.9439 87.216 59.2559 87.056 58.6639 86.736C58.0719 86.4 57.6239 85.96 57.3199 85.416L57.0319 87H54.8959ZM60.4879 84.648C61.4959 84.648 62.2959 84.264 62.8879 83.496C63.4799 82.728 63.7759 81.736 63.7759 80.52C63.7759 79.496 63.5519 78.704 63.1039 78.144C62.6559 77.568 62.0399 77.28 61.2559 77.28C60.5999 77.28 60.0159 77.464 59.5039 77.832C58.9919 78.184 58.5839 78.688 58.2799 79.344C57.9759 79.984 57.8239 80.728 57.8239 81.576C57.8239 82.52 58.0639 83.272 58.5439 83.832C59.0239 84.376 59.6719 84.648 60.4879 84.648ZM75.1174 87.216C73.8054 87.216 72.6694 86.976 71.7094 86.496C70.7654 86 70.0374 85.296 69.5254 84.384C69.0134 83.472 68.7574 82.384 68.7574 81.12C68.7574 79.856 69.0214 78.744 69.5494 77.784C70.0774 76.808 70.7894 76.048 71.6854 75.504C72.5974 74.96 73.6294 74.688 74.7814 74.688C76.6534 74.688 78.0294 75.328 78.9094 76.608C79.8054 77.872 80.1174 79.624 79.8454 81.864H71.7334C71.7974 82.712 72.1414 83.392 72.7654 83.904C73.3894 84.416 74.2454 84.672 75.3334 84.672C75.8454 84.672 76.3574 84.56 76.8694 84.336C77.3974 84.112 77.8454 83.768 78.2134 83.304L79.9174 85.032C79.3734 85.72 78.7094 86.256 77.9254 86.64C77.1574 87.024 76.2214 87.216 75.1174 87.216ZM74.8294 76.896C74.0134 76.896 73.3414 77.152 72.8134 77.664C72.2854 78.176 71.9494 78.864 71.8054 79.728H77.3254C77.3574 78.736 77.1414 78.016 76.6774 77.568C76.2134 77.12 75.5974 76.896 74.8294 76.896ZM82.3647 87V74.88H85.2927L85.1487 77.856C85.6447 76.752 86.2847 75.952 87.0687 75.456C87.8687 74.944 88.7247 74.688 89.6367 74.688C90.5167 74.688 91.2927 74.928 91.9647 75.408C92.6367 75.888 93.1167 76.64 93.4047 77.664C93.9167 76.656 94.5887 75.912 95.4207 75.432C96.2687 74.936 97.1407 74.688 98.0367 74.688C99.3807 74.688 100.397 75.16 101.085 76.104C101.789 77.032 102.133 78.368 102.117 80.112L102.069 87H99.1407L99.1887 80.208C99.1887 79.328 99.0287 78.648 98.7087 78.168C98.3887 77.672 97.8927 77.424 97.2207 77.424C96.7567 77.424 96.3087 77.576 95.8767 77.88C95.4607 78.168 95.0847 78.672 94.7487 79.392C94.4287 80.112 94.1727 81.096 93.9807 82.344C93.7887 83.576 93.6847 85.128 93.6687 87H90.7647V80.208C90.7647 79.328 90.6127 78.648 90.3087 78.168C90.0047 77.672 89.5167 77.424 88.8447 77.424C88.3807 77.424 87.9327 77.576 87.5007 77.88C87.0847 78.168 86.7087 78.672 86.3727 79.392C86.0527 80.112 85.7887 81.096 85.5807 82.344C85.3887 83.576 85.2847 85.128 85.2687 87H82.3647ZM104.956 82.176V79.536H112.132V82.176H104.956ZM121.032 87.216C119.72 87.216 118.584 86.976 117.624 86.496C116.68 86 115.952 85.296 115.44 84.384C114.928 83.472 114.672 82.384 114.672 81.12C114.672 79.856 114.936 78.744 115.464 77.784C115.992 76.808 116.704 76.048 117.6 75.504C118.512 74.96 119.544 74.688 120.696 74.688C122.568 74.688 123.944 75.328 124.824 76.608C125.72 77.872 126.032 79.624 125.76 81.864H117.648C117.712 82.712 118.056 83.392 118.68 83.904C119.304 84.416 120.16 84.672 121.248 84.672C121.76 84.672 122.272 84.56 122.784 84.336C123.312 84.112 123.76 83.768 124.128 83.304L125.832 85.032C125.288 85.72 124.624 86.256 123.84 86.64C123.072 87.024 122.136 87.216 121.032 87.216ZM120.743 76.896C119.928 76.896 119.256 77.152 118.728 77.664C118.2 78.176 117.864 78.864 117.72 79.728H123.24C123.272 78.736 123.056 78.016 122.592 77.568C122.128 77.12 121.512 76.896 120.743 76.896ZM132.527 87.216C130.863 87.216 129.591 86.904 128.711 86.28C127.831 85.64 127.319 84.752 127.175 83.616L129.647 83.016C129.743 83.624 130.023 84.096 130.487 84.432C130.951 84.752 131.615 84.912 132.479 84.912C133.183 84.912 133.711 84.8 134.063 84.576C134.431 84.352 134.615 84.048 134.615 83.664C134.615 83.28 134.415 82.984 134.015 82.776C133.631 82.568 133.031 82.384 132.215 82.224C131.303 82.048 130.519 81.824 129.863 81.552C129.223 81.28 128.727 80.912 128.375 80.448C128.039 79.968 127.871 79.344 127.871 78.576C127.871 77.84 128.079 77.184 128.495 76.608C128.911 76.016 129.479 75.552 130.199 75.216C130.935 74.864 131.775 74.688 132.719 74.688C133.983 74.688 135.015 74.984 135.815 75.576C136.631 76.168 137.119 76.928 137.279 77.856L134.855 78.504C134.743 78.04 134.503 77.68 134.135 77.424C133.767 77.152 133.271 77.016 132.647 77.016C132.023 77.016 131.543 77.144 131.207 77.4C130.887 77.656 130.727 77.976 130.727 78.36C130.727 78.744 130.911 79.048 131.279 79.272C131.663 79.48 132.311 79.68 133.223 79.872C134.071 80.048 134.807 80.272 135.431 80.544C136.071 80.8 136.575 81.16 136.943 81.624C137.311 82.072 137.495 82.68 137.495 83.448C137.495 84.2 137.279 84.864 136.847 85.44C136.431 86 135.847 86.44 135.095 86.76C134.343 87.064 133.487 87.216 132.527 87.216ZM144.501 87.216C143.045 87.216 141.909 86.816 141.093 86.016C140.293 85.216 139.901 84.168 139.917 82.872L140.013 77.328H137.949V74.88H140.061L140.085 72.384H143.013L142.965 74.88H146.925V77.328H142.941L142.869 82.56C142.853 83.216 143.013 83.736 143.349 84.12C143.701 84.488 144.221 84.672 144.909 84.672C145.277 84.672 145.621 84.624 145.941 84.528C146.261 84.432 146.597 84.256 146.949 84L147.813 86.256C147.445 86.576 146.973 86.816 146.397 86.976C145.821 87.136 145.189 87.216 144.501 87.216ZM160.185 74.928V87H157.209L157.305 84.888C156.873 85.624 156.305 86.2 155.601 86.616C154.913 87.016 154.121 87.216 153.225 87.216C152.169 87.216 151.273 86.976 150.537 86.496C149.801 86 149.241 85.32 148.857 84.456C148.473 83.592 148.281 82.6 148.281 81.48C148.281 80.136 148.545 78.96 149.073 77.952C149.601 76.928 150.321 76.128 151.233 75.552C152.161 74.976 153.201 74.688 154.353 74.688C155.121 74.688 155.801 74.856 156.393 75.192C156.985 75.512 157.441 75.944 157.761 76.488L158.049 74.928H160.185ZM154.569 77.28C153.577 77.28 152.785 77.656 152.193 78.408C151.601 79.16 151.305 80.144 151.305 81.36C151.305 82.4 151.529 83.208 151.977 83.784C152.425 84.36 153.041 84.648 153.825 84.648C154.465 84.648 155.041 84.464 155.553 84.096C156.081 83.728 156.497 83.216 156.801 82.56C157.105 81.904 157.257 81.152 157.257 80.304C157.257 79.36 157.017 78.624 156.537 78.096C156.057 77.552 155.401 77.28 154.569 77.28ZM171.07 77.712C170.75 77.6 170.342 77.544 169.846 77.544C168.982 77.544 168.286 77.864 167.758 78.504C167.23 79.128 166.838 80.136 166.582 81.528C166.342 82.904 166.222 84.728 166.222 87H163.318V79.176L163.294 74.88H166.222L166.078 78.264C166.494 76.968 167.07 76.048 167.806 75.504C168.558 74.96 169.358 74.688 170.206 74.688C170.462 74.688 170.702 74.704 170.926 74.736C171.15 74.768 171.358 74.816 171.55 74.88L171.07 77.712Z" fill="#334B35"/>
<path d="M130.025 189.761V221H91.0089V209.733H85.277C77.3173 209.733 70.8602 203.237 70.8602 195.215V184.928H65.9577C65.1751 184.928 64.4247 184.615 63.8704 184.059C63.3162 183.503 63.0032 182.748 63 181.961C63 181.548 63.0734 181.157 63.2203 180.807L70.8602 161.444C70.8602 161.444 71.6498 153.423 72.3689 150.352C75.5501 136.536 90.8513 124 107.444 124C127.629 124 144 140.479 144 160.814C144 172.557 138.534 183.023 130.025 189.761ZM79.842 160.566C78.7633 160.569 77.7297 161.002 76.9677 161.77C76.2057 162.539 75.7773 163.58 75.7765 164.666C75.7741 165.754 76.2008 166.799 76.9631 167.571C77.7254 168.342 78.7608 168.778 79.842 168.782C80.3796 168.783 80.9119 168.677 81.4086 168.47C81.9054 168.263 82.3568 167.96 82.7372 167.578C83.1175 167.196 83.4194 166.742 83.6254 166.242C83.8315 165.742 83.9378 165.207 83.9382 164.666C83.9337 163.576 83.5 162.532 82.7321 161.764C81.9643 160.995 80.9249 160.564 79.842 160.566ZM115.263 151.634C115.263 152.661 115.668 153.647 116.39 154.373C117.112 155.1 118.092 155.508 119.113 155.508C120.134 155.508 121.113 155.1 121.835 154.373C122.557 153.647 122.962 152.661 122.962 151.634C122.962 150.606 122.557 149.62 121.835 148.894C121.113 148.167 120.134 147.759 119.113 147.759C118.092 147.759 117.112 148.167 116.39 148.894C115.668 149.62 115.263 150.606 115.263 151.634ZM86.1645 147.426C86.1643 147.936 86.2641 148.442 86.4583 148.914C86.6525 149.385 86.9371 149.813 87.296 150.174C87.6549 150.535 88.081 150.821 88.5498 151.015C89.0186 151.21 89.5209 151.31 90.0281 151.309C91.0523 151.309 92.0346 150.899 92.7589 150.17C93.4832 149.441 93.8901 148.452 93.8901 147.421C93.8901 146.391 93.4832 145.402 92.7589 144.673C92.0346 143.944 91.0523 143.534 90.0281 143.534C89.5204 143.534 89.0178 143.635 88.5488 143.831C88.0799 144.026 87.6538 144.313 87.295 144.674C86.9362 145.036 86.6517 145.465 86.4577 145.937C86.2637 146.409 86.1641 146.915 86.1645 147.426ZM131.863 155.947L137.459 154.979V149.558L132.068 148.623C131.812 147.644 131.447 146.697 130.982 145.8L134.249 141.13L130.458 137.302L125.98 140.477C125.304 140.076 124.595 139.733 123.861 139.453C123.651 139.376 123.441 139.319 123.232 139.254L122.255 133.625H116.871L115.962 139.047C114.983 139.302 114.037 139.67 113.142 140.143L108.509 136.847L104.688 140.684L107.862 145.173C107.457 145.858 107.115 146.578 106.839 147.324C106.758 147.535 106.706 147.746 106.639 147.957L102.017 148.755V146.171L98.4866 145.561C98.3232 144.945 98.0912 144.349 97.7949 143.785L99.9585 140.708L97.4583 138.196L94.5144 140.286C94.0815 140.026 93.628 139.803 93.1587 139.618C93.0347 139.572 92.9062 139.561 92.7792 139.521L92.1396 135.814H88.6249L88.0098 139.371C87.3901 139.536 86.801 139.78 86.2349 140.077L83.1716 137.907L80.6836 140.419L82.7646 143.382C82.5041 143.815 82.2833 144.27 82.1051 144.743C82.0577 144.871 82.0286 144.997 81.9888 145.13L78.3257 145.763V149.319L81.8802 149.932C82.0413 150.545 82.2658 151.134 82.5534 151.7L80.3914 154.78L82.8824 157.295L85.8371 155.2C86.267 155.454 86.7123 155.69 87.1958 155.872C87.3197 155.92 87.4483 155.929 87.5722 155.972L88.2118 159.679L91.725 159.676L92.3416 156.123C92.9548 155.955 93.5479 155.72 94.1104 155.422L97.1615 157.587L99.6617 155.077L97.5838 152.114C97.8332 151.684 98.0642 151.242 98.2402 150.76C98.2907 150.632 98.2999 150.499 98.3443 150.368L101.056 149.896V154.346L106.437 155.277C106.691 156.266 107.061 157.215 107.53 158.116L104.263 162.768L108.061 166.602L112.536 163.426C113.205 163.819 113.904 164.167 114.657 164.445C114.867 164.525 115.076 164.579 115.286 164.647L116.262 170.279H120.935L120.549 172.535C119.875 172.689 119.238 172.957 118.638 173.296L116.404 171.707L114.652 173.472L116.164 175.626C115.904 176.042 115.677 176.484 115.505 176.962C115.436 177.153 115.408 177.344 115.355 177.535L112.643 178.001V180.488L115.238 180.941C115.388 181.625 115.655 182.264 115.994 182.872L114.415 185.118L116.161 186.887L118.302 185.36C118.715 185.625 119.157 185.852 119.633 186.03C119.823 186.1 120.015 186.127 120.21 186.18L120.655 188.896H123.135L123.588 186.294C124.268 186.144 124.904 185.876 125.507 185.534L127.729 187.121L129.487 185.355L127.975 183.213C128.241 182.794 128.471 182.347 128.648 181.865C128.714 181.677 128.742 181.486 128.795 181.295L131.484 180.829V178.332L128.902 177.887C128.748 177.21 128.493 176.561 128.146 175.961L129.721 173.71L127.966 171.947L125.828 173.459C125.411 173.19 124.966 172.966 124.502 172.791C124.32 172.725 124.133 172.697 123.946 172.648L123.473 169.933H121.702L122.557 164.854C123.533 164.6 124.476 164.234 125.368 163.762L130.007 167.057L133.809 163.229L130.648 158.724C131.041 158.049 131.39 157.343 131.67 156.585C131.748 156.372 131.802 156.161 131.869 155.95L131.863 155.947ZM118.207 179.578C118.208 180.609 118.616 181.598 119.341 182.327C120.066 183.055 121.049 183.464 122.073 183.464C122.579 183.463 123.08 183.361 123.547 183.166C124.014 182.97 124.438 182.683 124.795 182.322C125.152 181.962 125.435 181.534 125.627 181.063C125.82 180.592 125.918 180.087 125.917 179.578C125.918 179.069 125.819 178.565 125.627 178.094C125.434 177.624 125.151 177.196 124.794 176.835C124.437 176.475 124.013 176.189 123.547 175.993C123.08 175.798 122.579 175.696 122.073 175.696C121.049 175.695 120.067 176.103 119.342 176.831C118.617 177.559 118.208 178.547 118.207 179.578Z" fill="#334B35"/>
</svg>
